<svg xmlns="http://www.w3.org/2000/svg" xmlns:xlink="http://www.w3.org/1999/xlink" id="Layer_1" x="0" y="0" enable-background="new 0 0 1000 1000" version="1.1" viewBox="0 0 1000 1000" xml:space="preserve"><metadata><?xpacket begin="﻿" id="W5M0MpCehiHzreSzNTczkc9d"?><?xpacket end="w"?></metadata><switch><g><g><g><g><circle cx="500" cy="500" r="398" fill="#382B73"/></g><g><circle cx="500" cy="500" r="344.3" fill="#473080"/></g></g><g><path fill="#382B73" d="M765.3,532.2C765.3,532.2,765.3,532.2,765.3,532.2c0.4-0.1,0.8-0.2,1.1-0.3c0.1,0,0.2-0.1,0.3-0.1 c0.3-0.1,0.5-0.2,0.8-0.3c0.1,0,0.2-0.1,0.3-0.1c0.2-0.1,0.5-0.2,0.7-0.4c0.1-0.1,0.3-0.1,0.4-0.2c0.2-0.1,0.3-0.2,0.5-0.3 c0.2-0.1,0.5-0.3,0.7-0.5c0.1-0.1,0.2-0.2,0.4-0.3c0.2-0.1,0.3-0.3,0.5-0.4c0.1-0.1,0.2-0.1,0.2-0.2c0.3-0.3,0.6-0.6,0.9-0.9 c0,0,0.1-0.1,0.1-0.1c0.2-0.2,0.3-0.4,0.5-0.6c0,0,0.1-0.1,0.1-0.1c1.6-2.1,2.5-4.7,2.5-7.5c0-6.9-5.6-12.5-12.5-12.5H739 C732.8,385.3,634.7,287.2,512.5,281v-6c0,0,0,0,0,0v-17.8c0-6.9-5.6-12.5-12.5-12.5s-12.5,5.6-12.5,12.5v17.8c0,0,0,0,0,0v6 C365.3,287.2,267.2,385.3,261,507.5h-23.8c-6.9,0-12.5,5.6-12.5,12.5c0,2.8,0.9,5.4,2.5,7.5c0,0,0.1,0.1,0.1,0.1 c0.1,0.2,0.3,0.4,0.5,0.6c0,0,0.1,0.1,0.1,0.1c0.3,0.3,0.6,0.6,0.9,0.9c0.1,0.1,0.2,0.1,0.2,0.2c0.2,0.1,0.3,0.3,0.5,0.4 c0.1,0.1,0.2,0.2,0.4,0.3c0.2,0.2,0.5,0.3,0.7,0.5c0.2,0.1,0.3,0.2,0.5,0.3c0.1,0.1,0.3,0.2,0.4,0.2c0.2,0.1,0.5,0.2,0.7,0.4 c0.1,0.1,0.2,0.1,0.3,0.1c0.3,0.1,0.5,0.2,0.8,0.3c0.1,0,0.2,0.1,0.3,0.1c0.3,0.1,0.7,0.2,1,0.3c0,0,0.1,0,0.1,0 c0.3,0.1,0.7,0.1,1,0.2c0.1,0,0.2,0,0.3,0c0.4,0,0.8,0.1,1.1,0.1H261c6.3,122.3,104.3,220.3,226.6,226.6v8.8l0,0v15 c0,2,0.5,3.8,1.3,5.5c2,4.2,6.3,7,11.2,7s9.2-2.9,11.2-7c0.8-1.7,1.3-3.5,1.3-5.5v-15l0,0V759 c122.3-6.3,220.3-104.3,226.6-226.6h23.8c0.4,0,0.8,0,1.1-0.1c0.1,0,0.2,0,0.3,0C764.6,532.4,764.9,532.3,765.3,532.2z"/></g><g><g><circle cx="500" cy="500" r="239.4" fill="#FFF"/></g><g><circle cx="500" cy="500" r="180" fill="#A72973"/></g><g><circle cx="500" cy="500" r="159" fill="#EF5A9D"/></g><g><g><g><path fill="#FEDE3A" d="M500,359.3L500,359.3c-6.9,0-12.5-5.6-12.5-12.5V237.2c0-6.9,5.6-12.5,12.5-12.5l0,0 c6.9,0,12.5,5.6,12.5,12.5v109.6C512.5,353.7,506.9,359.3,500,359.3z"/></g><g><path fill="#E7AD27" d="M500,347.4c-6.9,0-12.5-5.6-12.5-12.5v11.8c0,6.9,5.6,12.5,12.5,12.5s12.5-5.6,12.5-12.5v-11.8 C512.5,341.8,506.9,347.4,500,347.4z"/></g><g><path fill="#FEDE3A" d="M500,775.3L500,775.3c-6.9,0-12.5-5.6-12.5-12.5V653.2c0-6.9,5.6-12.5,12.5-12.5l0,0 c6.9,0,12.5,5.6,12.5,12.5v109.6C512.5,769.7,506.9,775.3,500,775.3z"/></g><g><path fill="#E7AD27" d="M500,760.3c-6.9,0-12.5-5.6-12.5-12.5v15c0,6.9,5.6,12.5,12.5,12.5s12.5-5.6,12.5-12.5v-15 C512.5,754.7,506.9,760.3,500,760.3z"/></g></g><g><path fill="#A72973" d="M640.7,510c0,6.9,5.6,12.5,12.5,12.5h4.1c1-7.3,1.6-14.9,1.6-22.5c0-0.8,0-1.7,0-2.5h-5.7 C646.3,497.5,640.7,503.1,640.7,510z"/><path fill="#D1D3D4" d="M739.3,497.5H680c0,0.8,0,1.7,0,2.5c0,7.6-0.5,15.1-1.4,22.5h59.7c0.7-7.4,1.1-14.9,1.1-22.5 C739.4,499.2,739.3,498.3,739.3,497.5z"/><path fill="#A72973" d="M359.3,510c0,6.9-5.6,12.5-12.5,12.5h-4.1c-1-7.3-1.6-14.9-1.6-22.5c0-0.8,0-1.7,0-2.5h5.7 C353.7,497.5,359.3,503.1,359.3,510z"/><path fill="#D1D3D4" d="M260.7,497.5H320c0,0.8,0,1.7,0,2.5c0,7.6,0.5,15.1,1.4,22.5h-59.7c-0.7-7.4-1.1-14.9-1.1-22.5 C260.6,499.2,260.7,498.3,260.7,497.5z"/><g><path fill="#FEDE3A" d="M640.7,500L640.7,500c0-6.9,5.6-12.5,12.5-12.5h109.6c6.9,0,12.5,5.6,12.5,12.5l0,0 c0,6.9-5.6,12.5-12.5,12.5H653.2C646.3,512.5,640.7,506.9,640.7,500z"/></g><g><path fill="#E7AD27" d="M762.8,500H653.2c-4.6,0-8.6-2.5-10.8-6.2c-1.1,1.8-1.7,4-1.7,6.2c0,6.9,5.6,12.5,12.5,12.5h109.6 c6.9,0,12.5-5.6,12.5-12.5c0-2.3-0.6-4.4-1.7-6.2C771.5,497.5,767.4,500,762.8,500z"/></g><g><path fill="#FEDE3A" d="M224.7,500L224.7,500c0-6.9,5.6-12.5,12.5-12.5h109.6c6.9,0,12.5,5.6,12.5,12.5l0,0 c0,6.9-5.6,12.5-12.5,12.5H237.2C230.3,512.5,224.7,506.9,224.7,500z"/></g><g><path fill="#E7AD27" d="M346.8,500H237.2c-4.6,0-8.6-2.5-10.8-6.2c-1.1,1.8-1.7,4-1.7,6.2c0,6.9,5.6,12.5,12.5,12.5h109.6 c6.9,0,12.5-5.6,12.5-12.5c0-2.3-0.6-4.4-1.7-6.2C355.4,497.5,351.4,500,346.8,500z"/></g></g></g><path fill="#A72973" d="M592.5,495.4h-0.2h-4.2c6.6-3.7,11-10.7,11-18.8c0,0,0-0.1,0-0.1c0,0,0-0.1,0-0.1c0-1.2-0.1-2.3-0.3-3.5 c0,0,0,0.1,0,0.1c-1.7-10.3-10.6-18.1-21.3-18.1s-19.6,7.8-21.3,18.1c0,0,0-0.1,0-0.1c-0.2,1.1-0.3,2.3-0.3,3.5c0,0,0,0.1,0,0.1 c0,0,0,0.1,0,0.1c0,8.1,4.4,15.1,11,18.8h-4.2h-0.2c-5.7,0-11,2.1-15.1,5.5c-6.3-4.4-14-6.9-22.3-6.9h-0.3l0,0h-7 c11-6.2,18.5-18.1,18.5-31.6c0,0,0-0.1,0-0.1c0,0,0-0.1,0-0.1c0-2-0.2-3.9-0.5-5.8c0,0,0,0.1,0,0.1 c-2.9-17.2-17.8-30.3-35.8-30.3c-18,0-32.9,13.1-35.8,30.3c0,0,0-0.1,0-0.1c-0.3,1.9-0.5,3.9-0.5,5.8c0,0,0,0.1,0,0.1 c0,0,0,0.1,0,0.1c0,13.6,7.4,25.4,18.5,31.6h-7l0,0h-0.3c-8.3,0-16,2.6-22.3,6.9c-4.1-3.4-9.3-5.5-15.1-5.5h-0.2h-4.2 c6.6-3.7,11-10.7,11-18.8c0,0,0-0.1,0-0.1c0,0,0-0.1,0-0.1c0-1.2-0.1-2.3-0.3-3.5c0,0,0,0.1,0,0.1 c-1.7-10.3-10.6-18.1-21.3-18.1s-19.6,7.8-21.3,18.1c0,0,0-0.1,0-0.1c-0.2,1.1-0.3,2.3-0.3,3.5c0,0,0,0.1,0,0.1c0,0,0,0.1,0,0.1 c0,8.1,4.4,15.1,11,18.8h-4.2h-0.2c-12.9,0-23.4,10.5-23.4,23.4v15.7c0,3,2.5,5.5,5.5,5.5h6.7h39.2v19.7c0,5.1,4.1,9.2,9.2,9.2 h11.2h88.1h11.2c5.1,0,9.2-4.1,9.2-9.2V540h39.2h6.7c3,0,5.5-2.5,5.5-5.5v-15.7C615.9,505.9,605.4,495.4,592.5,495.4z"/><g><g><g><g><path fill="#D1D3D4" d="M455.4,530h-65.8c-3,0-5.5-2.5-5.5-5.5v-15.7c0-12.9,10.5-23.4,23.4-23.4h29.9 c12.9,0,23.4,10.5,23.4,23.4v15.7C460.9,527.6,458.4,530,455.4,530z"/></g><g><path fill="#FFF" d="M448.7,530h-52.5c-2.7,0-5-2.2-5-5v-18.5c0-11.7,9.5-21.1,21.1-21.1h20.2c11.7,0,21.1,9.5,21.1,21.1 v18.5C453.7,527.8,451.5,530,448.7,530z"/></g><g><circle cx="422.5" cy="468.4" r="19.7" fill="#00A58C"/></g></g><g><path fill="#D1D3D4" d="M437.3,485.4h-29.6c3.2,4.8,8.6,7.9,14.8,7.9S434.1,490.2,437.3,485.4z"/></g><g><circle cx="422.5" cy="466.6" r="21.6" fill="#FFF"/></g><g><path fill="#D1D3D4" d="M422.5,481.1c-10.8,0-19.7-7.8-21.3-18.1c-0.2,1.1-0.3,2.3-0.3,3.5c0,11.9,9.7,21.6,21.6,21.6 s21.6-9.7,21.6-21.6c0-1.2-0.1-2.3-0.3-3.5C442.2,473.2,433.3,481.1,422.5,481.1z"/></g></g><g><g><g><path fill="#D1D3D4" d="M610.4,530h-65.8c-3,0-5.5-2.5-5.5-5.5v-15.7c0-12.9,10.5-23.4,23.4-23.4h29.9 c12.9,0,23.4,10.5,23.4,23.4v15.7C615.9,527.6,613.4,530,610.4,530z"/></g><g><path fill="#FFF" d="M603.7,530h-52.5c-2.7,0-5-2.2-5-5v-18.5c0-11.7,9.5-21.1,21.1-21.1h20.2c11.7,0,21.1,9.5,21.1,21.1 v18.5C608.7,527.8,606.5,530,603.7,530z"/></g><g><circle cx="577.5" cy="468.4" r="19.7" fill="#00A58C"/></g></g><g><path fill="#D1D3D4" d="M592.3,485.4h-29.6c3.2,4.8,8.6,7.9,14.8,7.9S589.1,490.2,592.3,485.4z"/></g><g><circle cx="577.5" cy="466.6" r="21.6" fill="#FFF"/></g><g><path fill="#D1D3D4" d="M577.5,481.1c-10.8,0-19.7-7.8-21.3-18.1c-0.2,1.1-0.3,2.3-0.3,3.5c0,11.9,9.7,21.6,21.6,21.6 s21.6-9.7,21.6-21.6c0-1.2-0.1-2.3-0.3-3.5C597.2,473.2,588.3,481.1,577.5,481.1z"/></g></g></g><g><g><g><path fill="#177BC0" d="M555.3,558.9H444.7c-5.1,0-9.2-4.1-9.2-9.2v-26.4c0-21.7,17.6-39.4,39.4-39.4h50.3 c21.7,0,39.4,17.6,39.4,39.4v26.4C564.5,554.8,560.4,558.9,555.3,558.9z"/></g><g><path fill="#1CAEE4" d="M544.1,558.9h-88.1c-4.6,0-8.3-3.7-8.3-8.3v-31.1c0-19.6,15.9-35.5,35.5-35.5h33.8 c19.6,0,35.5,15.9,35.5,35.5v31.1C552.4,555.2,548.7,558.9,544.1,558.9z"/></g><g><circle cx="500" cy="455.4" r="33" fill="#00A58C"/></g></g><g><path fill="#177BC0" d="M524.8,484h-49.6c5.3,8,14.5,13.3,24.8,13.3S519.5,492,524.8,484z"/></g><g><circle cx="500" cy="452.4" r="36.3" fill="#FEDE3A"/></g><g><path fill="#FFC733" d="M500,476.7c-18.1,0-33-13.2-35.8-30.4c-0.3,1.9-0.5,3.9-0.5,5.8c0,20,16.3,36.3,36.3,36.3 s36.3-16.3,36.3-36.3c0-2-0.2-3.9-0.5-5.8C533,463.5,518.1,476.7,500,476.7z"/></g></g></g></g></g></switch></svg>