<svg xmlns="http://www.w3.org/2000/svg" width="1232" height="885" fill="none" viewBox="0 0 1232 885"><g style="mix-blend-mode:multiply"><path fill="#F8F8FB" fill-rule="evenodd" d="M0.808472 605.552C-0.315957 557.276 24.0815 509.821 60.2667 473.157C96.452 436.494 143.689 409.799 192.977 388.836C291.552 346.909 402.002 325.619 490.094 267.565C546.385 230.522 590.032 180.495 636.285 133.69C682.537 86.8839 734.004 41.4938 798.672 18.0024C851.966 -1.43939 912.01 -4.42767 967.121 8.28661C1022.23 21.0009 1072.16 49.1437 1109.66 86.9458C1146.55 124.112 1171.12 169.744 1191.67 216.124C1212.2 262.405 1229.22 310.177 1253.17 355.076C1291.15 426.136 1346.01 489.119 1380.98 561.329C1398.41 597.438 1410.75 636.063 1412.33 675.628C1413.91 715.195 1404.2 755.946 1380.39 789.852C1347.81 836.151 1290.93 866.448 1231.33 878.265C1171.71 889.984 1109.73 884.669 1051.06 871.774C933.717 845.884 825.693 789.919 705.374 776.803C569.863 762.06 432.933 803.205 296.127 801.482C227.774 800.566 158.091 788.241 101.219 755.385C72.9941 738.84 48.0922 717.276 30.2483 691.645C12.286 665.926 1.48306 636.035 0.808472 605.552Z" clip-rule="evenodd"/></g></svg>