<svg xmlns="http://www.w3.org/2000/svg" xmlns:xlink="http://www.w3.org/1999/xlink" id="Layer_1" x="0" y="0" enable-background="new 0 0 1000 1000" version="1.1" viewBox="0 0 1000 1000" xml:space="preserve"><metadata><?xpacket begin="﻿" id="W5M0MpCehiHzreSzNTczkc9d"?><?xpacket end="w"?></metadata><switch><g><g><g><g><circle cx="500" cy="500" r="398" fill="#382B73"/></g><g><circle cx="500" cy="500" r="344.3" fill="#473080"/></g></g><g><g><path fill="#382B73" d="M572.5,680.3H272.6c-9.2,0-16.7,7.5-16.7,16.7c0,3.8,1.3,7.2,3.4,10c0,0.1,0.1,0.1,0.1,0.2 c0.2,0.3,0.4,0.5,0.6,0.8c0,0,0.1,0.1,0.1,0.1c0.4,0.4,0.8,0.8,1.2,1.2c0.1,0.1,0.2,0.2,0.3,0.3c0.2,0.2,0.4,0.4,0.6,0.5 c0.2,0.1,0.3,0.3,0.5,0.4c0.3,0.2,0.6,0.4,0.9,0.6c0.2,0.1,0.4,0.3,0.7,0.4c0.2,0.1,0.4,0.2,0.5,0.3c0.3,0.2,0.6,0.3,1,0.5 c0.2,0.1,0.3,0.1,0.5,0.2c0.3,0.1,0.7,0.3,1.1,0.4c0.1,0,0.3,0.1,0.4,0.1c0.4,0.1,0.9,0.3,1.4,0.3c0,0,0.1,0,0.1,0 c0.5,0.1,0.9,0.2,1.4,0.2c0.1,0,0.3,0,0.4,0c0.5,0,1,0.1,1.5,0.1h299.9c0.5,0,1,0,1.5-0.1c0.1,0,0.3,0,0.4,0 c0.5-0.1,0.9-0.1,1.4-0.2c0,0,0.1,0,0.1,0c0.5-0.1,0.9-0.2,1.4-0.3c0.1,0,0.3-0.1,0.4-0.1c0.4-0.1,0.7-0.2,1.1-0.4 c0.2-0.1,0.3-0.1,0.5-0.2c0.3-0.1,0.7-0.3,1-0.5c0.2-0.1,0.4-0.2,0.5-0.3c0.2-0.1,0.4-0.3,0.7-0.4c0.3-0.2,0.6-0.4,0.9-0.6 c0.2-0.1,0.3-0.2,0.5-0.4c0.2-0.2,0.4-0.3,0.6-0.5c0.1-0.1,0.2-0.2,0.3-0.3c0.4-0.4,0.8-0.8,1.2-1.2c0,0,0.1-0.1,0.1-0.1 c0.2-0.2,0.4-0.5,0.6-0.8c0-0.1,0.1-0.1,0.1-0.2c0.4-0.5,0.8-1.1,1.1-1.7l0,0l0,0c1.4-2.5,2.3-5.3,2.3-8.3 C589.2,687.7,581.7,680.3,572.5,680.3z"/></g><g><path fill="#382B73" d="M678.3,680.3h-49.9c-9.2,0-16.7,7.5-16.7,16.7c0,3.8,1.3,7.2,3.4,10c0,0.1,0.1,0.1,0.1,0.2 c0.2,0.3,0.4,0.5,0.6,0.8c0,0,0.1,0.1,0.1,0.1c0.4,0.4,0.8,0.8,1.2,1.2c0.1,0.1,0.2,0.2,0.3,0.3c0.2,0.2,0.4,0.4,0.6,0.5 c0.2,0.1,0.3,0.3,0.5,0.4c0.3,0.2,0.6,0.4,0.9,0.6c0.2,0.1,0.4,0.3,0.7,0.4c0.2,0.1,0.4,0.2,0.5,0.3c0.3,0.2,0.6,0.3,1,0.5 c0.2,0.1,0.3,0.1,0.5,0.2c0.3,0.1,0.7,0.3,1.1,0.4c0.1,0,0.3,0.1,0.4,0.1c0.4,0.1,0.9,0.3,1.4,0.3c0,0,0.1,0,0.1,0 c0.5,0.1,0.9,0.2,1.4,0.2c0.1,0,0.3,0,0.4,0c0.5,0,1,0.1,1.5,0.1h49.9c0.5,0,1,0,1.5-0.1c0.1,0,0.3,0,0.4,0 c0.5-0.1,0.9-0.1,1.4-0.2c0,0,0.1,0,0.1,0c0.5-0.1,0.9-0.2,1.4-0.3c0.1,0,0.3-0.1,0.4-0.1c0.4-0.1,0.7-0.2,1.1-0.4 c0.2-0.1,0.3-0.1,0.5-0.2c0.3-0.1,0.7-0.3,1-0.5c0.2-0.1,0.4-0.2,0.5-0.3c0.2-0.1,0.4-0.3,0.7-0.4c0.3-0.2,0.6-0.4,0.9-0.6 c0.2-0.1,0.3-0.2,0.5-0.4c0.2-0.2,0.4-0.3,0.6-0.5c0.1-0.1,0.2-0.2,0.3-0.3c0.4-0.4,0.8-0.8,1.2-1.2c0,0,0.1-0.1,0.1-0.1 c0.2-0.2,0.4-0.5,0.6-0.8c0-0.1,0.1-0.1,0.1-0.2c0.4-0.5,0.8-1.1,1.1-1.7l0,0l0,0c1.4-2.5,2.3-5.3,2.3-8.3 C695,687.7,687.5,680.3,678.3,680.3z"/></g><g><path fill="#382B73" d="M733,713.3c0,0,0.1,0,0.1,0c0.5-0.1,0.9-0.2,1.4-0.3c0.1,0,0.3-0.1,0.4-0.1c0.4-0.1,0.7-0.2,1.1-0.4 c0.2-0.1,0.3-0.1,0.5-0.2c0.3-0.1,0.7-0.3,1-0.5c0.2-0.1,0.4-0.2,0.5-0.3c0.2-0.1,0.4-0.3,0.7-0.4c0.3-0.2,0.6-0.4,0.9-0.6 c0.2-0.1,0.3-0.2,0.5-0.4c0.2-0.2,0.4-0.3,0.6-0.5c0.1-0.1,0.2-0.2,0.3-0.3c0.4-0.4,0.8-0.8,1.2-1.2c0,0,0.1-0.1,0.1-0.1 c0.2-0.2,0.4-0.5,0.6-0.8c0-0.1,0.1-0.1,0.1-0.2c2.1-2.8,3.4-6.3,3.4-10c0-9.2-7.5-16.7-16.7-16.7c-9.2,0-16.7,7.5-16.7,16.7 c0,3.8,1.3,7.2,3.4,10c0,0.1,0.1,0.1,0.1,0.2c0.2,0.3,0.4,0.5,0.6,0.8c0,0,0.1,0.1,0.1,0.1c0.4,0.4,0.8,0.8,1.2,1.2 c0.1,0.1,0.2,0.2,0.3,0.3c0.2,0.2,0.4,0.4,0.6,0.5c0.2,0.1,0.3,0.2,0.5,0.4c0.3,0.2,0.6,0.4,0.9,0.6c0.2,0.1,0.4,0.3,0.7,0.4 c0.2,0.1,0.4,0.2,0.5,0.3c0.3,0.2,0.6,0.3,1,0.5c0.2,0.1,0.3,0.1,0.5,0.2c0.3,0.1,0.7,0.3,1.1,0.4c0.1,0,0.3,0.1,0.4,0.1 c0.4,0.1,0.9,0.3,1.4,0.3c0,0,0.1,0,0.1,0c0.5,0.1,0.9,0.2,1.4,0.2c0.1,0,0.3,0,0.4,0c0.5,0,1,0.1,1.5,0.1c0.5,0,1,0,1.5-0.1 c0.1,0,0.3,0,0.4,0C732.1,713.5,732.5,713.4,733,713.3z"/></g><g><path fill="#382B73" d="M318.4,664.2l22.4-7.8l56.1-19.5l0,0l235.6-235.6v0l0,0l31-31c0.5-0.5,1-1,1.4-1.5 c0.1-0.2,0.3-0.3,0.4-0.5c0.3-0.4,0.6-0.7,0.9-1.1c0.2-0.2,0.3-0.4,0.5-0.6c0.3-0.3,0.5-0.6,0.8-1c0.2-0.2,0.3-0.5,0.5-0.7 c0.2-0.3,0.4-0.6,0.7-0.9c0.2-0.2,0.3-0.5,0.5-0.7c0.2-0.3,0.4-0.6,0.6-0.9c0.2-0.3,0.3-0.5,0.4-0.8c0.2-0.3,0.4-0.6,0.5-0.9 c0.1-0.3,0.3-0.5,0.4-0.8c0.2-0.3,0.3-0.6,0.5-1c0.1-0.3,0.2-0.5,0.4-0.8c0.1-0.3,0.3-0.6,0.4-1c0.1-0.3,0.2-0.6,0.3-0.8 c0.1-0.3,0.2-0.6,0.4-1c0.1-0.3,0.2-0.6,0.3-0.9c0.1-0.3,0.2-0.6,0.3-1c0.1-0.3,0.2-0.6,0.3-0.9c0.1-0.3,0.2-0.7,0.3-1 c0.1-0.3,0.1-0.6,0.2-0.9c0.1-0.3,0.1-0.7,0.2-1c0.1-0.3,0.1-0.6,0.2-0.9c0.1-0.3,0.1-0.7,0.2-1c0-0.3,0.1-0.6,0.1-0.9 c0-0.3,0.1-0.7,0.1-1c0-0.3,0.1-0.6,0.1-0.9c0-0.3,0.1-0.7,0.1-1c0-0.3,0-0.6,0-0.9c0-0.3,0-0.7,0-1c0-0.3,0-0.6,0-0.9 c0-0.3,0-0.7,0-1c0-0.3,0-0.6,0-0.9c0-0.3,0-0.7-0.1-1c0-0.3-0.1-0.6-0.1-0.9c0-0.3-0.1-0.7-0.1-1c0-0.3-0.1-0.6-0.1-0.9 c0-0.3-0.1-0.6-0.2-1c-0.1-0.3-0.1-0.6-0.2-0.9c-0.1-0.3-0.1-0.6-0.2-1c-0.1-0.3-0.1-0.6-0.2-0.9c-0.1-0.3-0.2-0.6-0.3-1 c-0.1-0.3-0.2-0.6-0.3-0.9c-0.1-0.3-0.2-0.6-0.3-0.9c-0.1-0.3-0.2-0.6-0.3-0.9c-0.1-0.3-0.2-0.6-0.3-0.9 c-0.1-0.3-0.2-0.6-0.3-0.9c-0.1-0.3-0.3-0.6-0.4-0.9c-0.1-0.3-0.3-0.6-0.4-0.9c-0.1-0.3-0.3-0.6-0.4-0.9 c-0.1-0.3-0.3-0.6-0.4-0.9c-0.2-0.3-0.3-0.6-0.5-0.9c-0.2-0.3-0.3-0.6-0.5-0.8c-0.2-0.3-0.4-0.6-0.5-0.9 c-0.2-0.3-0.3-0.5-0.5-0.8c-0.2-0.3-0.4-0.6-0.6-0.9c-0.2-0.3-0.4-0.5-0.5-0.8c-0.2-0.3-0.5-0.6-0.7-0.9 c-0.2-0.2-0.4-0.5-0.5-0.7c-0.4-0.5-0.9-1-1.3-1.5l0,0c-0.5-0.5-1-1-1.5-1.5l-24.2-24.2c-15.8-15.8-41.5-15.8-57.3,0 l-25.3,25.3l0,0l-5.7,5.7L315.5,555.5l-0.7,2l-2.5,7.2l0,0l-24.1,69.3l0,0l-16.1,46.3L318.4,664.2L318.4,664.2z"/></g></g><g><g><path fill="#1CAEE4" d="M572.5,693.7H272.6c-9.2,0-16.7-7.5-16.7-16.7l0,0c0-9.2,7.5-16.7,16.7-16.7h299.9 c9.2,0,16.7,7.5,16.7,16.7l0,0C589.2,686.2,581.7,693.7,572.5,693.7z"/></g><g><path fill="#177BC0" d="M572.5,677H272.6c-6.2,0-11.6,3.4-14.4,8.3c2.9,5,8.3,8.3,14.4,8.3h299.9c6.2,0,11.6-3.4,14.4-8.3 C584.1,680.3,578.7,677,572.5,677z"/></g><g><path fill="#1CAEE4" d="M678.3,693.7h-49.9c-9.2,0-16.7-7.5-16.7-16.7l0,0c0-9.2,7.5-16.7,16.7-16.7h49.9 c9.2,0,16.7,7.5,16.7,16.7l0,0C695,686.2,687.5,693.7,678.3,693.7z"/></g><g><path fill="#177BC0" d="M678.3,677h-49.9c-6.2,0-11.6,3.4-14.4,8.3c2.9,5,8.3,8.3,14.4,8.3h49.9c6.2,0,11.6-3.4,14.4-8.3 C689.8,680.3,684.5,677,678.3,677z"/></g><g><circle cx="729.7" cy="677" r="16.7" fill="#1CAEE4"/></g><g><path fill="#177BC0" d="M729.7,677c-6.2,0-11.6,3.4-14.4,8.3c2.9,5,8.3,8.3,14.4,8.3c6.2,0,11.6-3.4,14.4-8.3 C741.3,680.3,735.9,677,729.7,677z"/></g><g><g><rect width="115.2" height="333.2" x="416.4" y="291.8" fill="#FFF" transform="matrix(0.7071 0.7071 -0.7071 0.7071 462.9449 -200.9152)"/></g><g><polygon fill="#FFF" points="272.1 660.3 315.5 535.5 396.9 616.9"/></g><g><polygon fill="#D1D3D4" points="306.8 625.6 272.1 660.3 396.9 616.9 356.2 576.1"/></g><g><path fill="#EF5A9D" d="M663.5,293l-24.2-24.2c-15.8-15.8-41.5-15.8-57.3,0l-31,31l81.4,81.4l31-31 C679.3,334.4,679.3,308.8,663.5,293z"/></g><g><rect width="38.4" height="333.2" x="481.9" y="318.9" fill="#E7AD27" transform="matrix(0.7071 0.7071 -0.7071 0.7071 490.0878 -212.1581)"/></g><g><rect width="38.4" height="333.2" x="454.8" y="291.8" fill="#FFC733" transform="matrix(0.7071 0.7071 -0.7071 0.7071 462.9449 -200.9151)"/></g><g><rect width="38.4" height="333.2" x="427.7" y="264.6" fill="#FEDE3A" transform="matrix(0.7071 0.7071 -0.7071 0.7071 435.802 -189.6722)"/></g><g><rect width="115.2" height="8" x="537.1" y="333.7" fill="#A72973" transform="matrix(0.7071 0.7071 -0.7071 0.7071 412.9752 -321.5526)"/></g><g><path fill="#A72973" d="M665,294.5l-59.6,59.6l27.1,27.1l31-31C678.8,334.9,679.3,310.4,665,294.5z"/></g><g><polygon fill="#D1D3D4" points="387.7 620.1 396.9 616.9 315.5 535.5 312.3 544.6"/></g><g><path fill="#2DBBA5" d="M272.1,660.3l46.3-16.1c-2.4-6.8-6.2-13.2-11.7-18.6c-5.4-5.4-11.8-9.3-18.6-11.7L272.1,660.3z"/></g><g><path fill="#00A58C" d="M318.4,644.2c-2.4-6.8-6.2-13.2-11.7-18.6l-34.7,34.7L318.4,644.2z"/></g></g></g></g></g></switch></svg>