<svg xmlns="http://www.w3.org/2000/svg" xmlns:xlink="http://www.w3.org/1999/xlink" id="Layer_1" x="0" y="0" enable-background="new 0 0 1000 1000" version="1.1" viewBox="0 0 1000 1000" xml:space="preserve"><metadata><?xpacket begin="﻿" id="W5M0MpCehiHzreSzNTczkc9d"?><?xpacket end="w"?></metadata><switch><g><g><g><g><circle cx="500" cy="500" r="398" fill="#382B73"/></g><g><circle cx="500" cy="500" r="344.3" fill="#473080"/></g></g><g><path fill="#382B73" d="M640,433.8V324c0-8.3-6.7-15-15-15H370c-8.3,0-15,6.7-15,15v113.7l-54.5,41.9v220.5c0,4.9,2.4,9.3,6,12 c0,0,0,0,0,0c0.3,0.3,0.7,0.5,1,0.7c0,0,0.1,0,0.1,0.1c0.3,0.2,0.7,0.4,1,0.6c0.1,0,0.2,0.1,0.2,0.1c0.3,0.2,0.6,0.3,1,0.4 c0.1,0,0.3,0.1,0.4,0.1c0.3,0.1,0.6,0.2,0.9,0.3c0.2,0.1,0.4,0.1,0.6,0.1c0.3,0.1,0.5,0.1,0.8,0.2c0.3,0.1,0.5,0.1,0.8,0.1 c0.2,0,0.4,0.1,0.6,0.1c0.5,0,1,0.1,1.4,0.1c0,0,0,0,0,0h369c0,0,0,0,0,0c0.5,0,1,0,1.4-0.1c0.2,0,0.4-0.1,0.6-0.1 c0.3,0,0.5-0.1,0.8-0.1c0.3-0.1,0.5-0.1,0.8-0.2c0.2,0,0.4-0.1,0.6-0.1c0.3-0.1,0.6-0.2,0.9-0.3c0.1,0,0.3-0.1,0.4-0.1 c0.3-0.1,0.7-0.3,1-0.4c0.1,0,0.2-0.1,0.2-0.1c0.4-0.2,0.7-0.4,1-0.6c0,0,0.1,0,0.1-0.1c0.4-0.2,0.7-0.5,1-0.7c0,0,0,0,0,0 c3.6-2.7,6-7.1,6-12V479.6L640,433.8z"/></g><g><g><path fill="#1CAEE4" d="M684.5,695.1h-369c-8.3,0-15-6.7-15-15V459.6h399v220.5C699.5,688.4,692.8,695.1,684.5,695.1z"/></g><g><path fill="#177BC0" d="M500,541.7L305.5,691.2c2.7,2.4,6.2,3.8,10,3.8h369c3.8,0,7.3-1.5,10-3.8L500,541.7z"/></g><g><polygon fill="#A72973" points="500 613 699.5 459.6 300.5 459.6"/></g><g><polygon fill="#EF5A9D" points="500 306.2 300.5 459.6 699.5 459.6"/></g><g><path fill="#FFF" d="M355,501.5L500,613l140-107.7V304c0-8.3-6.7-15-15-15H370c-8.3,0-15,6.7-15,15V501.5z"/></g><g><path fill="#D1D3D4" d="M470.2,571L355,482.4v19.1L500,613l140-107.7v-18.9L530.1,571C512.5,584.5,487.9,584.5,470.2,571z"/></g><g><g><path fill="#D1D3D4" d="M471.5,386.8h127.1c7.4,0,13.4-6,13.4-13.4l0,0c0-7.4-6-13.4-13.4-13.4H471.5c-7.4,0-13.4,6-13.4,13.4 l0,0C458,380.8,464.1,386.8,471.5,386.8z"/></g><g><path fill="#2DBBA5" d="M471.5,378.4h127.1c7.4,0,13.4-6,13.4-13.4l0,0c0-7.4-6-13.4-13.4-13.4H471.5c-7.4,0-13.4,6-13.4,13.4 l0,0C458,372.4,464.1,378.4,471.5,378.4z"/></g><g><path fill="#00A58C" d="M598.5,365H471.5c-5,0-9.3-2.7-11.6-6.7c-1.1,2-1.8,4.2-1.8,6.7c0,7.4,6,13.4,13.4,13.4h127.1 c7.4,0,13.4-6,13.4-13.4c0-2.4-0.7-4.7-1.8-6.7C607.8,362.3,603.5,365,598.5,365z"/></g></g><g><g><path fill="#D1D3D4" d="M401.5,442.2h197.1c7.4,0,13.4-6,13.4-13.4l0,0c0-7.4-6-13.4-13.4-13.4H401.5c-7.4,0-13.4,6-13.4,13.4 l0,0C388,436.2,394.1,442.2,401.5,442.2z"/></g><g><path fill="#2DBBA5" d="M401.5,433.8h197.1c7.4,0,13.4-6,13.4-13.4l0,0c0-7.4-6-13.4-13.4-13.4H401.5c-7.4,0-13.4,6-13.4,13.4 l0,0C388,427.8,394.1,433.8,401.5,433.8z"/></g><g><path fill="#00A58C" d="M598.5,420.4H401.5c-5,0-9.3-2.7-11.6-6.7c-1.1,2-1.8,4.2-1.8,6.7c0,7.4,6,13.4,13.4,13.4h197.1 c7.4,0,13.4-6,13.4-13.4c0-2.4-0.7-4.7-1.8-6.7C607.8,417.7,603.5,420.4,598.5,420.4z"/></g></g><g><g><path fill="#D1D3D4" d="M401.5,497.6h197.1c7.4,0,13.4-6,13.4-13.4l0,0c0-7.4-6-13.4-13.4-13.4H401.5c-7.4,0-13.4,6-13.4,13.4 l0,0C388,491.6,394.1,497.6,401.5,497.6z"/></g><g><path fill="#2DBBA5" d="M401.5,489.2h197.1c7.4,0,13.4-6,13.4-13.4l0,0c0-7.4-6-13.4-13.4-13.4H401.5c-7.4,0-13.4,6-13.4,13.4 l0,0C388,483.2,394.1,489.2,401.5,489.2z"/></g><g><path fill="#00A58C" d="M598.5,475.9H401.5c-5,0-9.3-2.7-11.6-6.7c-1.1,2-1.8,4.2-1.8,6.7c0,7.4,6,13.4,13.4,13.4h197.1 c7.4,0,13.4-6,13.4-13.4c0-2.4-0.7-4.7-1.8-6.7C607.8,473.1,603.5,475.9,598.5,475.9z"/></g></g></g></g></g></switch></svg>