<svg xmlns="http://www.w3.org/2000/svg" xmlns:xlink="http://www.w3.org/1999/xlink" id="Layer_1" x="0" y="0" enable-background="new 0 0 1000 1000" version="1.1" viewBox="0 0 1000 1000" xml:space="preserve"><metadata><?xpacket begin="﻿" id="W5M0MpCehiHzreSzNTczkc9d"?><?xpacket end="w"?></metadata><switch><g><g><g><g><circle cx="500" cy="500" r="398" fill="#382B73"/></g><g><circle cx="500" cy="500" r="344.3" fill="#473080"/></g></g><g><path fill="#382B73" d="M693,306.5H307c-1.6,0-3.1,0.2-4.5,0.7c-6.1,1.9-10.5,7.6-10.5,14.3v62v17v258v20c0,1.6,0.2,3.1,0.7,4.5 c0.6,1.9,1.5,3.6,2.8,5.1c0.6,0.7,1.3,1.4,2,2c1.5,1.2,3.2,2.2,5.1,2.8c1.4,0.4,2.9,0.7,4.5,0.7h386c6.7,0,12.4-4.4,14.3-10.5 c0.4-1.4,0.7-2.9,0.7-4.5v-20v-258v-17v-62C708,313.2,701.3,306.5,693,306.5z"/></g><g><g><path fill="#FFF" d="M693,673.5H307c-8.3,0-15-6.7-15-15v-357c0-8.3,6.7-15,15-15h386c8.3,0,15,6.7,15,15v357 C708,666.8,701.3,673.5,693,673.5z"/></g><g><path fill="#D1D3D4" d="M693,653.5H307c-8.3,0-15-6.7-15-15v20c0,8.3,6.7,15,15,15h386c8.3,0,15-6.7,15-15v-20 C708,646.8,701.3,653.5,693,653.5z"/></g><g><path fill="#2DBBA5" d="M693,286.5H307c-8.3,0-15,6.7-15,15v79h416v-79C708,293.2,701.3,286.5,693,286.5z"/></g><g><g><circle cx="660.9" cy="326.5" r="14.1" fill="#FFF"/></g><g><path fill="#D1D3D4" d="M660.9,333.5c-6.6,0-12.1-4.5-13.7-10.6c-0.3,1.1-0.5,2.3-0.5,3.5c0,7.8,6.3,14.1,14.1,14.1 c7.8,0,14.1-6.3,14.1-14.1c0-1.2-0.2-2.4-0.5-3.5C673,329,667.4,333.5,660.9,333.5z"/></g><g><circle cx="616.7" cy="326.5" r="14.1" fill="#FFF"/></g><g><circle cx="572.5" cy="326.5" r="14.1" fill="#FFF"/></g><g><path fill="#D1D3D4" d="M616.7,333.5c-6.6,0-12.1-4.5-13.7-10.6c-0.3,1.1-0.5,2.3-0.5,3.5c0,7.8,6.3,14.1,14.1,14.1 c7.8,0,14.1-6.3,14.1-14.1c0-1.2-0.2-2.4-0.5-3.5C628.8,329,623.2,333.5,616.7,333.5z"/></g><g><path fill="#D1D3D4" d="M572.5,333.5c-6.6,0-12.1-4.5-13.7-10.6c-0.3,1.1-0.5,2.3-0.5,3.5c0,7.8,6.3,14.1,14.1,14.1 c7.8,0,14.1-6.3,14.1-14.1c0-1.2-0.2-2.4-0.5-3.5C584.6,329,579.1,333.5,572.5,333.5z"/></g></g><g><path fill="#D1D3D4" d="M607.4,451.7c-30.1-22.2-67.2-35.4-107.4-35.4s-77.3,13.2-107.4,35.4c-44.6,33-73.6,86-73.6,145.6h60 c0-39,18.5-73.7,47.3-95.9c20.4-15.7,46-25.1,73.7-25.1s53.3,9.4,73.7,25.1c28.7,22.1,47.3,56.9,47.3,95.9h60 C681,537.7,652,484.7,607.4,451.7z"/></g><g><g><path fill="#2DBBA5" d="M319,587.3h60c0-39,18.5-73.7,47.3-95.9l-33.6-49.7C348,474.7,319,527.7,319,587.3z"/></g><g><path fill="#EF5A9D" d="M607.4,441.7l-33.6,49.7c28.7,22.1,47.3,56.9,47.3,95.9h60C681,527.7,652,474.7,607.4,441.7z"/></g><g><path fill="#FEDE3A" d="M500,406.3c-40.2,0-77.3,13.2-107.4,35.4l33.6,49.7c20.4-15.7,46-25.1,73.7-25.1s53.3,9.4,73.7,25.1 l33.6-49.7C577.3,419.5,540.2,406.3,500,406.3z"/></g></g><g><path fill="#00A58C" d="M426.3,491.5l-15.5-22.9c-36,27.1-59.3,70.2-59.3,118.7H379C379,548.4,397.5,513.6,426.3,491.5z"/></g><g><path fill="#E7AD27" d="M500,438.8c-33.5,0-64.4,11.1-89.2,29.8l15.5,22.9c20.4-15.7,46-25.1,73.7-25.1s53.3,9.4,73.7,25.1 l15.5-22.9C564.4,449.9,533.5,438.8,500,438.8z"/></g><g><path fill="#A72973" d="M589.2,468.6l-15.5,22.9c28.7,22.1,47.3,56.9,47.3,95.9h27.5C648.5,538.8,625.2,495.7,589.2,468.6z"/></g><g><path fill="#D1D3D4" d="M572.1,456.4c-0.1-0.1-0.2-0.2-0.3-0.3c-0.1-0.1-0.3-0.2-0.4-0.3c-0.1-0.1-0.3-0.2-0.4-0.4 c0,0-0.1,0-0.1-0.1c-0.1-0.1-0.2-0.1-0.3-0.2c-0.2-0.2-0.4-0.3-0.7-0.4c-0.1,0-0.1-0.1-0.1-0.1l0,0c-0.1,0-0.1-0.1-0.2-0.1 c-0.2-0.1-0.4-0.2-0.7-0.3c-0.1-0.1-0.2-0.1-0.4-0.2c-0.2-0.1-0.4-0.2-0.7-0.3c-0.1,0-0.3-0.1-0.4-0.1 c-0.3-0.1-0.6-0.2-0.9-0.3c-0.2-0.1-0.5-0.1-0.7-0.1c-0.1,0-0.2,0-0.3,0c-0.3,0-0.5-0.1-0.8-0.1c-0.1,0-0.1,0-0.2,0 c-0.3,0-0.6,0-0.8,0c0,0,0,0,0,0l0,0c-4.2,0-8.3,2.1-10.5,6L510,533c-13.6-3.4-28.7,0.3-39.3,10.9 c-15.9,15.9-16.2,41.6-0.8,57.8l-12.3,21.1c-2.4,4.1-2.1,9.1,0.4,12.8c0,0.1,0.1,0.1,0.1,0.2c0.2,0.2,0.3,0.4,0.5,0.6 c0.1,0.1,0.1,0.1,0.2,0.2c0.2,0.2,0.3,0.4,0.5,0.6c0.1,0.1,0.2,0.2,0.4,0.4c0.2,0.2,0.4,0.4,0.6,0.6c0.2,0.2,0.4,0.3,0.6,0.5 c0.1,0.1,0.2,0.2,0.3,0.2c0.2,0.1,0.4,0.3,0.6,0.4c0.1,0,0.1,0.1,0.2,0.1v0c0.1,0,0.1,0.1,0.2,0.1c0.2,0.1,0.4,0.2,0.7,0.3 c0.1,0.1,0.3,0.1,0.4,0.2c0.1,0,0.1,0.1,0.2,0.1c0.2,0.1,0.3,0.1,0.5,0.2c0.2,0.1,0.3,0.1,0.5,0.2c0.2,0.1,0.4,0.1,0.6,0.2 c0.2,0.1,0.4,0.1,0.6,0.1c0.1,0,0.2,0,0.3,0c4.9,1,10.1-1.2,12.8-5.8l12.4-21.3c13.4,3,28-0.7,38.4-11.1 c15.7-15.7,16.2-40.9,1.4-57.2l43.3-74.3C576.9,466.2,576,460.2,572.1,456.4z"/></g><g><path fill="#E7AD27" d="M572.1,456.4c-0.1-0.1-0.2-0.2-0.3-0.3c-0.1-0.1-0.3-0.2-0.4-0.3c-0.1-0.1-0.3-0.2-0.4-0.4 c0,0-0.1,0-0.1-0.1c-0.1-0.1-0.2-0.1-0.3-0.2c-0.2-0.2-0.4-0.3-0.7-0.4c-0.1,0-0.1-0.1-0.1-0.1c-0.1,0-0.1-0.1-0.2-0.1 c-0.2-0.1-0.4-0.2-0.7-0.3c-0.1-0.1-0.2-0.1-0.4-0.2c-0.2-0.1-0.4-0.2-0.7-0.3c-0.1,0-0.3-0.1-0.4-0.1 c-0.3-0.1-0.6-0.2-0.9-0.3c-0.2-0.1-0.5-0.1-0.7-0.1c-0.1,0-0.2,0-0.3,0c-0.3,0-0.5-0.1-0.8-0.1c-0.1,0-0.1,0-0.2,0 c-0.3,0-0.6,0-0.8,0c0,0,0,0,0,0l0,0c-4.2,0-8.3,2.1-10.5,6l-9.2,15.7c7.6,3,14.8,6.7,21.6,11.1l8.5-14.6 C576.9,466.2,576,460.2,572.1,456.4z"/></g><g><g><path fill="#EF5A9D" d="M461.9,629.4L461.9,629.4c-5.8-3.4-7.7-10.8-4.4-16.6l95.6-163.9c3.4-5.8,10.8-7.7,16.6-4.4l0,0 c5.8,3.4,7.7,10.8,4.4,16.6l-95.6,163.9C475.1,630.8,467.7,632.8,461.9,629.4z"/></g><g><path fill="#A72973" d="M570.9,445.4c-2.2-1.7-4.8-2.4-7.3-2.4c2.1,3.6,2.2,8.2,0,12.1L468,619c-2.3,3.9-6.3,6-10.5,6 c1.3,2.2,3.2,4.1,5.8,5.2c5.7,2.4,12.2-0.1,15.3-5.4l95.2-163.2C577,456.2,575.9,449.1,570.9,445.4z"/></g><g><ellipse cx="500" cy="563.2" fill="#00A58C" rx="41.5" ry="41.5" transform="matrix(0.7071 -0.7071 0.7071 0.7071 -251.8283 518.5242)"/></g><g><ellipse cx="500" cy="563.2" fill="#2DBBA5" rx="25.2" ry="25.2" transform="matrix(0.7071 -0.7071 0.7071 0.7071 -251.8283 518.5242)"/></g></g><g><rect width="416" height="17" x="292" y="363.5" fill="#00A58C"/></g></g></g></g></switch></svg>