<svg xmlns="http://www.w3.org/2000/svg" xmlns:xlink="http://www.w3.org/1999/xlink" id="Layer_1" x="0" y="0" enable-background="new 0 0 1000 1000" version="1.1" viewBox="0 0 1000 1000" xml:space="preserve"><metadata><?xpacket begin="﻿" id="W5M0MpCehiHzreSzNTczkc9d"?><?xpacket end="w"?></metadata><switch><g><g><g><g><circle cx="500" cy="500" r="398" fill="#382B73"/></g><g><circle cx="500" cy="500" r="344.3" fill="#473080"/></g></g><g><path fill="#382B73" d="M687.4,306H312.6c-8.2,0-14.8,6.6-14.8,14.8v374.8c0,8.2,6.6,14.8,14.8,14.8h374.8 c8.2,0,14.8-6.6,14.8-14.8V320.8C702.2,312.6,695.6,306,687.4,306z"/></g><g><g><path fill="#382B73" d="M657.3,674.5H342.7c-6.9,0-12.4-5.6-12.4-12.4V347.4c0-6.9,5.6-12.4,12.4-12.4h314.7 c6.9,0,12.4,5.6,12.4,12.4V662C669.8,668.9,664.2,674.5,657.3,674.5z"/></g><g><path fill="#EF5A9D" d="M687.4,690.3H312.6c-8.2,0-14.8-6.6-14.8-14.8V300.8c0-8.2,6.6-14.8,14.8-14.8h374.8 c8.2,0,14.8,6.6,14.8,14.8v374.8C702.2,683.7,695.6,690.3,687.4,690.3z"/></g><g><path fill="#A72973" d="M674.2,669.9H325.8c-4.2,0-7.6-3.4-7.6-7.6V314c0-4.2,3.4-7.6,7.6-7.6h348.3c4.2,0,7.6,3.4,7.6,7.6 v348.3C681.8,666.5,678.4,669.9,674.2,669.9z"/></g><g><path fill="#FFF" d="M664.8,657.9H335.2c-2.7,0-5-2.2-5-5V323.4c0-2.7,2.2-5,5-5h329.6c2.7,0,5,2.2,5,5v329.6 C669.8,655.7,667.5,657.9,664.8,657.9z"/></g><g><path fill="#FEDE3A" d="M404.7,488.1l-74.5,110v55c0,2.6,2.1,4.7,4.7,4.7h184.8L404.7,488.1z"/></g><g><path fill="#D1D3D4" d="M506.3,420.8v-1.8c0-2.4-2-4.4-4.7-4.8l-14-1.9c0-0.1,0-0.2-0.1-0.3c-0.7-3.5-1.8-6.9-3.2-10.1 c-1.3-3.1-2.9-6-4.7-8.7l8.5-11.2c0.1-0.2,0.2-0.3,0.3-0.5c0.1-0.1,0.2-0.2,0.2-0.4c0.5-0.9,0.7-1.8,0.7-2.7 c0-0.3,0-0.6-0.1-0.9c-0.2-0.9-0.6-1.7-1.2-2.3l-4.4-4.4c0,0,0,0,0,0l-1.2-1.2c-1.7-1.7-4.6-1.7-6.7-0.1l-11.2,8.5 c-1.7-1.2-3.6-2.2-5.4-3.2c-1.2-0.6-2.3-1.2-3.5-1.7c-1.6-0.7-3.3-1.3-5-1.8c-1.7-0.5-3.4-1-5.2-1.3c-0.1,0-0.1,0-0.2,0 l-1.9-13.9c-0.4-2.7-2.4-4.7-4.8-4.7H437h-4.8h-1.6c-2.4,0-4.4,2-4.8,4.7l-1.9,13.9c-0.1,0-0.1,0-0.2,0 c-1.8,0.4-3.5,0.8-5.2,1.3c-1.7,0.5-3.4,1.1-5,1.8c-2.4,1-4.8,2.2-7,3.6c-0.7,0.4-1.3,0.8-2,1.3l-11.2-8.5 c-2.2-1.7-5-1.6-6.7,0.1l-5.7,5.7c-1.5,1.5-1.7,3.9-0.6,5.9c0.1,0.1,0.2,0.2,0.2,0.4c0.1,0.2,0.2,0.3,0.3,0.5l2.8,3.7l5.7,7.5 c-3.7,5.6-6.4,12-7.8,18.9c0,0.1,0,0.2-0.1,0.3l-14,1.9c-2.7,0.4-4.7,2.4-4.7,4.8v1.8v6.2c0,2.4,2,4.4,4.7,4.8l14.1,1.9 c1.4,6.9,4.2,13.4,8,19.1l-8.6,11.4c-1.7,2.2-1.6,5,0.1,6.7l5.7,5.7c1.5,1.5,3.9,1.7,5.9,0.6c0.1-0.1,0.2-0.2,0.4-0.2 c0.2-0.1,0.3-0.2,0.5-0.3l11.4-8.7c2.7,1.8,5.6,3.4,8.7,4.7c1.6,0.7,3.3,1.3,5,1.8c1.7,0.5,3.4,1,5.2,1.3c0,0,0.1,0,0.1,0 l1.9,14.2c0.4,2.7,2.4,4.7,4.8,4.7h1.6h4.8h1.6c2.4,0,4.4-2,4.8-4.7l1.9-14.2c0,0,0.1,0,0.1,0c1.8-0.4,3.5-0.8,5.2-1.3 c1.7-0.5,3.4-1.1,5-1.8c1.2-0.5,2.4-1.1,3.6-1.7c1.8-0.9,3.5-1.9,5.1-3l11.4,8.7c0.8,0.6,1.8,1,2.7,1.2c0.9,0.1,1.8,0,2.6-0.3 c0.5-0.2,1-0.5,1.5-1l4.4-4.4c0,0,0,0,0,0l1.2-1.2c1.7-1.7,1.7-4.6,0.1-6.7l-8.6-11.4c0.3-0.4,0.5-0.8,0.7-1.1 c1.3-2.1,2.5-4.4,3.6-6.7c1.6-3.6,2.8-7.3,3.6-11.2l14.1-1.9c1.7-0.2,3.1-1.1,3.9-2.3c0.5-0.7,0.8-1.6,0.8-2.5L506.3,420.8 C506.3,420.8,506.3,420.8,506.3,420.8z M434.6,454.2c-17.3,0-31.4-14-31.4-31.4c0-17.3,14-31.4,31.4-31.4 c17.3,0,31.4,14,31.4,31.4C466,440.2,451.9,454.2,434.6,454.2z"/></g><g><g><g><path fill="#A72973" d="M441.2,365.2h-13.3c-3,0-5.3-3.1-4.8-6.4l2.6-19.3c0.4-2.7,2.4-4.7,4.8-4.7h8c2.4,0,4.4,2,4.8,4.7 l2.6,19.3C446.5,362.2,444.2,365.2,441.2,365.2z"/></g><g><path fill="#A72973" d="M427.9,447.8h13.3c3,0,5.3,3.1,4.8,6.4l-2.6,19.3c-0.4,2.7-2.4,4.7-4.8,4.7h-8c-2.4,0-4.4-2-4.8-4.7 l-2.6-19.3C422.7,450.8,424.9,447.8,427.9,447.8z"/></g></g><g><g><path fill="#EF5A9D" d="M438.6,365.2h-8c-1.8,0-3.2-3.1-2.9-6.4l1.6-19.3c0.2-2.7,1.5-4.7,2.9-4.7h4.8c1.4,0,2.7,2,2.9,4.7 l1.6,19.3C441.7,362.2,440.4,365.2,438.6,365.2z"/></g><g><path fill="#EF5A9D" d="M430.6,447.8h8c1.8,0,3.2,3.1,2.9,6.4l-1.6,19.3c-0.2,2.7-1.5,4.7-2.9,4.7h-4.8c-1.4,0-2.7-2-2.9-4.7 l-1.6-19.3C427.4,450.8,428.8,447.8,430.6,447.8z"/></g></g><g><g><path fill="#EF5A9D" d="M475.9,413.1v-13.3c0-3,3.1-5.3,6.4-4.8l19.3,2.6c2.7,0.4,4.7,2.4,4.7,4.8v8c0,2.4-2,4.4-4.7,4.8 l-19.3,2.6C478.9,418.4,475.9,416.1,475.9,413.1z"/></g><g><path fill="#A72973" d="M501.6,409.1l-19.3,2.6c-3.4,0.5-6.4-1.8-6.4-4.8v6.2c0,3,3.1,5.3,6.4,4.8l19.3-2.6 c2.7-0.4,4.7-2.4,4.7-4.8v-6.2C506.3,406.6,504.3,408.7,501.6,409.1z"/></g><g><path fill="#EF5A9D" d="M393.3,399.8v13.3c0,3-3.1,5.3-6.4,4.8l-19.3-2.6c-2.7-0.4-4.7-2.4-4.7-4.8v-8c0-2.4,2-4.4,4.7-4.8 l19.3-2.6C390.3,394.6,393.3,396.9,393.3,399.8z"/></g><g><path fill="#A72973" d="M367.5,409.1l19.3,2.6c3.4,0.5,6.4-1.8,6.4-4.8v6.2c0,3-3.1,5.3-6.4,4.8l-19.3-2.6 c-2.7-0.4-4.7-2.4-4.7-4.8v-6.2C362.8,406.6,364.8,408.7,367.5,409.1z"/></g></g><g><g><path fill="#EF5A9D" d="M468.5,382l-9.4-9.4c-2.1-2.1-1.6-5.9,1.1-7.9l15.5-11.8c2.2-1.7,5-1.6,6.7,0.1l5.7,5.7 c1.7,1.7,1.7,4.6,0.1,6.7l-11.8,15.5C474.4,383.6,470.6,384.1,468.5,382z"/></g><g><path fill="#A72973" d="M483.8,360.9L472,376.4c-2.1,2.7-5.8,3.3-7.9,1.1l4.4,4.4c2.1,2.1,5.9,1.6,7.9-1.1l11.8-15.5 c1.7-2.2,1.6-5-0.1-6.7l-4.4-4.4C485.4,355.9,485.5,358.7,483.8,360.9z"/></g><g><path fill="#EF5A9D" d="M400.7,431l9.4,9.4c2.1,2.1,1.6,5.9-1.1,7.9l-15.5,11.8c-2.2,1.7-5,1.6-6.7-0.1l-5.7-5.7 c-1.7-1.7-1.7-4.6-0.1-6.7l11.8-15.5C394.8,429.4,398.6,428.9,400.7,431z"/></g><g><path fill="#A72973" d="M389,455.7l15.5-11.8c2.7-2.1,3.3-5.8,1.1-7.9l4.4,4.4c2.1,2.1,1.6,5.9-1.1,7.9l-15.5,11.8 c-2.2,1.7-5,1.6-6.7-0.1l-4.4-4.4C384,457.3,386.8,457.4,389,455.7z"/></g></g><g><g><path fill="#EF5A9D" d="M459.1,440.4l9.4-9.4c2.1-2.1,5.9-1.6,7.9,1.1l11.8,15.5c1.7,2.2,1.6,5-0.1,6.7l-5.7,5.7 c-1.7,1.7-4.6,1.7-6.7,0.1l-15.5-11.8C457.5,446.3,457,442.5,459.1,440.4z"/></g><g><path fill="#A72973" d="M480.2,455.7l-15.5-11.8c-2.7-2.1-3.3-5.8-1.1-7.9l-4.4,4.4c-2.1,2.1-1.6,5.9,1.1,7.9l15.5,11.8 c2.2,1.7,5,1.6,6.7-0.1l4.4-4.4C485.2,457.3,482.3,457.4,480.2,455.7z"/></g><g><path fill="#EF5A9D" d="M410.1,372.6l-9.4,9.4c-2.1,2.1-5.9,1.6-7.9-1.1l-11.8-15.5c-1.7-2.2-1.6-5,0.1-6.7l5.7-5.7 c1.7-1.7,4.6-1.7,6.7-0.1l15.5,11.8C411.7,366.7,412.2,370.5,410.1,372.6z"/></g><g><path fill="#A72973" d="M385.4,360.9l11.8,15.5c2.1,2.7,5.8,3.3,7.9,1.1l-4.4,4.4c-2.1,2.1-5.9,1.6-7.9-1.1l-11.8-15.5 c-1.7-2.2-1.6-5,0.1-6.7l4.4-4.4C383.7,355.9,383.7,358.7,385.4,360.9z"/></g></g><g><path fill="#EF5A9D" d="M434.6,352.3c-29.9,0-54.1,24.2-54.1,54.1s24.2,54.1,54.1,54.1s54.1-24.2,54.1-54.1 S464.4,352.3,434.6,352.3z M434.6,437.7c-17.3,0-31.4-14-31.4-31.4c0-17.3,14-31.4,31.4-31.4c17.3,0,31.4,14,31.4,31.4 C466,423.6,451.9,437.7,434.6,437.7z"/></g><g><path fill="#A72973" d="M434.6,352.3c-29.9,0-54.1,24.2-54.1,54.1c0,29.9,24.2,54.1,54.1,54.1c29.9,0,54.1-24.2,54.1-54.1 C488.6,376.5,464.4,352.3,434.6,352.3z M434.6,450.4c-24.4,0-44.1-19.7-44.1-44.1c0-24.4,19.7-44.1,44.1-44.1 c24.4,0,44.1,19.7,44.1,44.1C478.7,430.7,458.9,450.4,434.6,450.4z"/></g></g><g><polygon fill="#E7AD27" points="519.7 657.9 404.7 488.1 404.7 657.9"/></g><g><path fill="#1CAEE4" d="M669.8,508.1l-76.5-113l-178,262.8h242.1c6.9,0,12.4-5.6,12.4-12.4V508.1z"/></g><g><path fill="#177BC0" d="M669.8,653.5V508.1l-76.5-113v262.8h72.2C667.8,657.9,669.8,656,669.8,653.5z"/></g></g></g></g></switch></svg>