<svg xmlns="http://www.w3.org/2000/svg" xmlns:xlink="http://www.w3.org/1999/xlink" id="Layer_1" x="0" y="0" enable-background="new 0 0 1000 1000" version="1.1" viewBox="0 0 1000 1000" xml:space="preserve"><metadata><?xpacket begin="﻿" id="W5M0MpCehiHzreSzNTczkc9d"?><?xpacket end="w"?></metadata><switch><g><g><g><g><circle cx="500" cy="500" r="398" fill="#382B73"/></g><g><circle cx="500" cy="500" r="344.3" fill="#473080"/></g></g><g><path fill="#382B73" d="M710.6,455.7h-37.2V353.4c0-13.8-11.2-25-25-25H299.4c-13.8,0-25,11.2-25,25v246.7c0,13.8,11.2,25,25,25 h131.7v13.3v37.1h-16.2c-13,0-23.6,9.9-24.9,22.5c0,0.1-0.1,0.1-0.1,0.2c0,0.2,0,0.3,0,0.5v1.8v6.1v0.4c0,2.6,2.1,4.6,4.6,4.6 h0.4l0,0h158l0,0h0.4c2.6,0,4.6-2.1,4.6-4.6v-0.4v-6.1v-1.8c0-0.2,0-0.3,0-0.5c0-0.1-0.1-0.1-0.1-0.2 c-1.2-12.6-11.9-22.5-24.9-22.5h-16.2v-37.1v-13.3h62.9v71.4c0,8.3,6.7,15,15,15h116c8.3,0,15-6.7,15-15V470.7 C725.6,462.4,718.9,455.7,710.6,455.7z"/></g><g><g><g><path fill="#FFC733" d="M648.4,605.1H299.4c-13.8,0-25-11.2-25-25V333.4c0-13.8,11.2-25,25-25h348.9c13.8,0,25,11.2,25,25 v246.7C673.4,593.9,662.2,605.1,648.4,605.1z"/></g><g><path fill="#FEDE3A" d="M647.3,597.5H300.5c-11,0-20-9-20-20V336c0-11,9-20,20-20h346.9c11,0,20,9,20,20v241.5 C667.3,588.6,658.4,597.5,647.3,597.5z"/></g><g><path fill="#FFC733" d="M632.6,565.7H315.2c-11,0-20-9-20-20V351.3c0-11,9-20,20-20h317.4c11,0,20,9,20,20v194.4 C652.6,556.7,643.6,565.7,632.6,565.7z"/></g><g><path fill="#EF5A9D" d="M630.9,558.9H316.9c-8.3,0-15-6.7-15-15V352.2c0-8.3,6.7-15,15-15h314.1c8.3,0,15,6.7,15,15v191.7 C645.9,552.2,639.2,558.9,630.9,558.9z"/></g><g><path fill="#A72973" d="M632,337.2H315.8c-7.7,0-13.9,6.2-13.9,13.9v10.7c0-7.7,6.2-13.9,13.9-13.9H632 c7.7,0,13.9,6.2,13.9,13.9v-10.7C645.9,343.4,639.7,337.2,632,337.2z"/></g><g><path fill="#FEDE3A" d="M532.9,655.5h-118c-13.8,0-25,11.2-25,25v6.1c0,2.8,2.2,5,5,5h158c2.8,0,5-2.2,5-5v-6.1 C557.9,666.7,546.7,655.5,532.9,655.5z"/></g><g><path fill="#FFC733" d="M538.4,667.6h-129c-8.2,0-15.4,4.2-19.5,10.6c0,0.2,0,0.3,0,0.5v8.2c0,2.6,2.1,4.6,4.6,4.6h158.8 c2.6,0,4.6-2.1,4.6-4.6v-8.2c0-0.2,0-0.3,0-0.5C553.8,671.8,546.6,667.6,538.4,667.6z"/></g><g><rect width="85.6" height="50.4" x="431.1" y="605.1" fill="#1CAEE4"/></g><g><rect width="85.6" height="13.3" x="431.1" y="605.1" fill="#177BC0"/></g><g><circle cx="473.9" cy="581.3" r="9.3" fill="#1CAEE4"/></g><g><path fill="#177BC0" d="M473.9,587.1c-4.5,0-8.3-3.2-9.1-7.5c-0.1,0.6-0.2,1.1-0.2,1.7c0,5.1,4.2,9.3,9.3,9.3s9.3-4.2,9.3-9.3 c0-0.6-0.1-1.2-0.2-1.7C482.2,583.9,478.4,587.1,473.9,587.1z"/></g></g><g><g><path fill="#D1D3D4" d="M710.6,691.6h-116c-8.3,0-15-6.7-15-15V450.7c0-8.3,6.7-15,15-15h116c8.3,0,15,6.7,15,15v225.9 C725.6,684.9,718.9,691.6,710.6,691.6z"/></g><g><path fill="#FFF" d="M710.4,685.7H594.7c-5.1,0-9.2-4.1-9.2-9.2V450.8c0-5.1,4.1-9.2,9.2-9.2h115.7c5.1,0,9.2,4.1,9.2,9.2 v225.7C719.7,681.6,715.6,685.7,710.4,685.7z"/></g><g><circle cx="652.6" cy="664.3" r="14.4" fill="#A72973"/></g><g><circle cx="652.6" cy="664.3" r="9.2" fill="#EF5A9D"/></g><g><path fill="#177BC0" d="M701.9,636h-98.7c-5.5,0-10-4.5-10-10V459.1c0-5.5,4.5-10,10-10h98.7c5.5,0,10,4.5,10,10V626 C711.9,631.5,707.5,636,701.9,636z"/></g><g><path fill="#1CAEE4" d="M698.4,626.7h-91.7c-3.4,0-6.2-2.8-6.2-6.2V464.6c0-3.4,2.8-6.2,6.2-6.2h91.7c3.4,0,6.2,2.8,6.2,6.2 v155.8C704.7,623.9,701.9,626.7,698.4,626.7z"/></g></g></g></g></g></switch></svg>