<svg xmlns="http://www.w3.org/2000/svg" xmlns:xlink="http://www.w3.org/1999/xlink" id="Layer_1" x="0" y="0" enable-background="new 0 0 1000 1000" version="1.1" viewBox="0 0 1000 1000" xml:space="preserve"><metadata><?xpacket begin="﻿" id="W5M0MpCehiHzreSzNTczkc9d"?><?xpacket end="w"?></metadata><switch><g><g><g><g><circle cx="500" cy="500" r="398" fill="#382B73"/></g><g><circle cx="500" cy="500" r="344.3" fill="#473080"/></g></g><g><path fill="#382B73" d="M712.2,326.4h-1.4c0,0,0,0,0,0h-87.7v-27.2c0-10.9-8.9-19.8-19.8-19.8h0c-10.9,0-19.8,8.9-19.8,19.8 v27.2H416.5v-27.2c0-10.9-8.9-19.8-19.8-19.8c-10.9,0-19.8,8.9-19.8,19.8v27.2h-87.7c0,0,0,0,0,0h-1.4c-8.3,0-15,6.7-15,15v1.4 v56.9v8.7v5.9v266c0,9,7.3,16.4,16.4,16.4h421.7c9,0,16.4-7.3,16.4-16.4v-266v-5.9v-8.7v-56.9v-1.4 C727.2,333.1,720.5,326.4,712.2,326.4z"/></g><g><g><path fill="#FFF" d="M710.9,676.6H289.1c-9,0-16.4-7.3-16.4-16.4V322.7c0-9,7.3-16.4,16.4-16.4h421.7 c9,0,16.4,7.3,16.4,16.4v337.5C727.2,669.3,719.9,676.6,710.9,676.6z"/></g><g><path fill="#D1D3D4" d="M710.9,663.3H289.1c-9,0-16.4-7.3-16.4-16.4v13.3c0,9,7.3,16.4,16.4,16.4h421.7c9,0,16.4-7.3,16.4-16.4 v-13.3C727.2,655.9,719.9,663.3,710.9,663.3z"/></g><g><path fill="#2DBBA5" d="M727.2,388.3v-66.9c0-8.3-6.7-15-15-15H287.8c-8.3,0-15,6.7-15,15v66.9H727.2z"/></g><g><rect width="454.5" height="14.6" x="272.8" y="379.6" fill="#00A58C"/></g><g><circle cx="396.7" cy="340.9" r="28.4" fill="#00A58C"/></g><g><circle cx="603.3" cy="340.9" r="28.4" fill="#00A58C"/></g><g><g><g><path fill="#FEDE3A" d="M396.7,359.9L396.7,359.9c-10.9,0-19.8-8.9-19.8-19.8v-60.9c0-10.9,8.9-19.8,19.8-19.8h0 c10.9,0,19.8,8.9,19.8,19.8v60.9C416.5,351,407.6,359.9,396.7,359.9z"/></g></g><g><path fill="#E7AD27" d="M396.7,326.9c-10.9,0-19.8-8.9-19.8-19.8v33c0,10.9,8.9,19.8,19.8,19.8c10.9,0,19.8-8.9,19.8-19.8v-33 C416.5,318,407.6,326.9,396.7,326.9z"/></g><g><g><path fill="#FEDE3A" d="M603.3,359.9L603.3,359.9c-10.9,0-19.8-8.9-19.8-19.8v-60.9c0-10.9,8.9-19.8,19.8-19.8h0 c10.9,0,19.8,8.9,19.8,19.8v60.9C623.1,351,614.3,359.9,603.3,359.9z"/></g></g><g><path fill="#E7AD27" d="M603.3,326.9c-10.9,0-19.8-8.9-19.8-19.8v33c0,10.9,8.9,19.8,19.8,19.8c10.9,0,19.8-8.9,19.8-19.8v-33 C623.1,318,614.3,326.9,603.3,326.9z"/></g></g><g><g><path fill="#D1D3D4" d="M430.7,484.9h-33c-8.3,0-15-6.7-15-15v-33c0-8.3,6.7-15,15-15h33c8.3,0,15,6.7,15,15v33 C445.7,478.2,438.9,484.9,430.7,484.9z"/></g><g><path fill="#D1D3D4" d="M516.5,484.9h-33c-8.3,0-15-6.7-15-15v-33c0-8.3,6.7-15,15-15h33c8.3,0,15,6.7,15,15v33 C531.5,478.2,524.8,484.9,516.5,484.9z"/></g><g><path fill="#D1D3D4" d="M602.3,484.9h-33c-8.3,0-15-6.7-15-15v-33c0-8.3,6.7-15,15-15h33c8.3,0,15,6.7,15,15v33 C617.3,478.2,610.6,484.9,602.3,484.9z"/></g><g><path fill="#D1D3D4" d="M688.2,484.9h-33c-8.3,0-15-6.7-15-15v-33c0-8.3,6.7-15,15-15h33c8.3,0,15,6.7,15,15v33 C703.2,478.2,696.4,484.9,688.2,484.9z"/></g><g><path fill="#D1D3D4" d="M688.2,564.8h-33c-8.3,0-15-6.7-15-15v-33c0-8.3,6.7-15,15-15h33c8.3,0,15,6.7,15,15v33 C703.2,558,696.4,564.8,688.2,564.8z"/></g><g><path fill="#D1D3D4" d="M344.8,564.8h-33c-8.3,0-15-6.7-15-15v-33c0-8.3,6.7-15,15-15h33c8.3,0,15,6.7,15,15v33 C359.8,558,353.1,564.8,344.8,564.8z"/></g><g><path fill="#D1D3D4" d="M430.7,564.8h-33c-8.3,0-15-6.7-15-15v-33c0-8.3,6.7-15,15-15h33c8.3,0,15,6.7,15,15v33 C445.7,558,438.9,564.8,430.7,564.8z"/></g><g><path fill="#D1D3D4" d="M516.5,564.8h-33c-8.3,0-15-6.7-15-15v-33c0-8.3,6.7-15,15-15h33c8.3,0,15,6.7,15,15v33 C531.5,558,524.8,564.8,516.5,564.8z"/></g><g><path fill="#D1D3D4" d="M602.3,564.8h-33c-8.3,0-15-6.7-15-15v-33c0-8.3,6.7-15,15-15h33c8.3,0,15,6.7,15,15v33 C617.3,558,610.6,564.8,602.3,564.8z"/></g><g><path fill="#D1D3D4" d="M344.8,644.6h-33c-8.3,0-15-6.7-15-15v-33c0-8.3,6.7-15,15-15h33c8.3,0,15,6.7,15,15v33 C359.8,637.9,353.1,644.6,344.8,644.6z"/></g><g><path fill="#D1D3D4" d="M430.7,644.6h-33c-8.3,0-15-6.7-15-15v-33c0-8.3,6.7-15,15-15h33c8.3,0,15,6.7,15,15v33 C445.7,637.9,438.9,644.6,430.7,644.6z"/></g><g><path fill="#D1D3D4" d="M516.5,644.6h-33c-8.3,0-15-6.7-15-15v-33c0-8.3,6.7-15,15-15h33c8.3,0,15,6.7,15,15v33 C531.5,637.9,524.8,644.6,516.5,644.6z"/></g><g><path fill="#D1D3D4" d="M602.3,644.6h-33c-8.3,0-15-6.7-15-15v-33c0-8.3,6.7-15,15-15h33c8.3,0,15,6.7,15,15v33 C617.3,637.9,610.6,644.6,602.3,644.6z"/></g><g><path fill="#FEDE3A" d="M430.7,474.9h-33c-8.3,0-15-6.7-15-15v-33c0-8.3,6.7-15,15-15h33c8.3,0,15,6.7,15,15v33 C445.7,468.2,438.9,474.9,430.7,474.9z"/></g><g><path fill="#FEDE3A" d="M516.5,474.9h-33c-8.3,0-15-6.7-15-15v-33c0-8.3,6.7-15,15-15h33c8.3,0,15,6.7,15,15v33 C531.5,468.2,524.8,474.9,516.5,474.9z"/></g><g><path fill="#FEDE3A" d="M602.3,474.9h-33c-8.3,0-15-6.7-15-15v-33c0-8.3,6.7-15,15-15h33c8.3,0,15,6.7,15,15v33 C617.3,468.2,610.6,474.9,602.3,474.9z"/></g><g><path fill="#FEDE3A" d="M688.2,474.9h-33c-8.3,0-15-6.7-15-15v-33c0-8.3,6.7-15,15-15h33c8.3,0,15,6.7,15,15v33 C703.2,468.2,696.4,474.9,688.2,474.9z"/></g><g><path fill="#FEDE3A" d="M688.2,554.8h-33c-8.3,0-15-6.7-15-15v-33c0-8.3,6.7-15,15-15h33c8.3,0,15,6.7,15,15v33 C703.2,548,696.4,554.8,688.2,554.8z"/></g><g><path fill="#EF5A9D" d="M344.8,554.8h-33c-8.3,0-15-6.7-15-15v-33c0-8.3,6.7-15,15-15h33c8.3,0,15,6.7,15,15v33 C359.8,548,353.1,554.8,344.8,554.8z"/></g><g><path fill="#FEDE3A" d="M430.7,554.8h-33c-8.3,0-15-6.7-15-15v-33c0-8.3,6.7-15,15-15h33c8.3,0,15,6.7,15,15v33 C445.7,548,438.9,554.8,430.7,554.8z"/></g><g><path fill="#FEDE3A" d="M516.5,554.8h-33c-8.3,0-15-6.7-15-15v-33c0-8.3,6.7-15,15-15h33c8.3,0,15,6.7,15,15v33 C531.5,548,524.8,554.8,516.5,554.8z"/></g><g><path fill="#FEDE3A" d="M602.3,554.8h-33c-8.3,0-15-6.7-15-15v-33c0-8.3,6.7-15,15-15h33c8.3,0,15,6.7,15,15v33 C617.3,548,610.6,554.8,602.3,554.8z"/></g><g><path fill="#EF5A9D" d="M344.8,634.6h-33c-8.3,0-15-6.7-15-15v-33c0-8.3,6.7-15,15-15h33c8.3,0,15,6.7,15,15v33 C359.8,627.9,353.1,634.6,344.8,634.6z"/></g><g><path fill="#FEDE3A" d="M430.7,634.6h-33c-8.3,0-15-6.7-15-15v-33c0-8.3,6.7-15,15-15h33c8.3,0,15,6.7,15,15v33 C445.7,627.9,438.9,634.6,430.7,634.6z"/></g><g><path fill="#FEDE3A" d="M516.5,634.6h-33c-8.3,0-15-6.7-15-15v-33c0-8.3,6.7-15,15-15h33c8.3,0,15,6.7,15,15v33 C531.5,627.9,524.8,634.6,516.5,634.6z"/></g><g><path fill="#FEDE3A" d="M602.3,634.6h-33c-8.3,0-15-6.7-15-15v-33c0-8.3,6.7-15,15-15h33c8.3,0,15,6.7,15,15v33 C617.3,627.9,610.6,634.6,602.3,634.6z"/></g><g><path fill="#E7AD27" d="M430.7,464.4h-33c-8.3,0-15-6.7-15-15v10.5c0,8.3,6.7,15,15,15h33c8.3,0,15-6.7,15-15v-10.5 C445.7,457.7,438.9,464.4,430.7,464.4z"/></g><g><path fill="#E7AD27" d="M516.5,464.4h-33c-8.3,0-15-6.7-15-15v10.5c0,8.3,6.7,15,15,15h33c8.3,0,15-6.7,15-15v-10.5 C531.5,457.7,524.8,464.4,516.5,464.4z"/></g><g><path fill="#E7AD27" d="M602.3,464.4h-33c-8.3,0-15-6.7-15-15v10.5c0,8.3,6.7,15,15,15h33c8.3,0,15-6.7,15-15v-10.5 C617.3,457.7,610.6,464.4,602.3,464.4z"/></g><g><path fill="#E7AD27" d="M688.2,464.4h-33c-8.3,0-15-6.7-15-15v10.5c0,8.3,6.7,15,15,15h33c8.3,0,15-6.7,15-15v-10.5 C703.2,457.7,696.4,464.4,688.2,464.4z"/></g><g><path fill="#E7AD27" d="M688.2,544.3h-33c-8.3,0-15-6.7-15-15v10.5c0,8.3,6.7,15,15,15h33c8.3,0,15-6.7,15-15v-10.5 C703.2,537.5,696.4,544.3,688.2,544.3z"/></g><g><path fill="#E7AD27" d="M602.3,544.3h-33c-8.3,0-15-6.7-15-15v10.5c0,8.3,6.7,15,15,15h33c8.3,0,15-6.7,15-15v-10.5 C617.3,537.5,610.6,544.3,602.3,544.3z"/></g><g><path fill="#E7AD27" d="M602.3,624.1h-33c-8.3,0-15-6.7-15-15v10.5c0,8.3,6.7,15,15,15h33c8.3,0,15-6.7,15-15v-10.5 C617.3,617.4,610.6,624.1,602.3,624.1z"/></g><g><path fill="#E7AD27" d="M516.5,624.1h-33c-8.3,0-15-6.7-15-15v10.5c0,8.3,6.7,15,15,15h33c8.3,0,15-6.7,15-15v-10.5 C531.5,617.4,524.8,624.1,516.5,624.1z"/></g><g><path fill="#E7AD27" d="M430.7,624.1h-33c-8.3,0-15-6.7-15-15v10.5c0,8.3,6.7,15,15,15h33c8.3,0,15-6.7,15-15v-10.5 C445.7,617.4,438.9,624.1,430.7,624.1z"/></g><g><path fill="#A72973" d="M344.8,624.1h-33c-8.3,0-15-6.7-15-15v10.5c0,8.3,6.7,15,15,15h33c8.3,0,15-6.7,15-15v-10.5 C359.8,617.4,353.1,624.1,344.8,624.1z"/></g><g><path fill="#E7AD27" d="M516.5,544.3h-33c-8.3,0-15-6.7-15-15v10.5c0,8.3,6.7,15,15,15h33c8.3,0,15-6.7,15-15v-10.5 C531.5,537.5,524.8,544.3,516.5,544.3z"/></g><g><path fill="#E7AD27" d="M430.7,544.3h-33c-8.3,0-15-6.7-15-15v10.5c0,8.3,6.7,15,15,15h33c8.3,0,15-6.7,15-15v-10.5 C445.7,537.5,438.9,544.3,430.7,544.3z"/></g><g><path fill="#A72973" d="M344.8,544.3h-33c-8.3,0-15-6.7-15-15v10.5c0,8.3,6.7,15,15,15h33c8.3,0,15-6.7,15-15v-10.5 C359.8,537.5,353.1,544.3,344.8,544.3z"/></g></g></g></g></g></switch></svg>