<svg xmlns="http://www.w3.org/2000/svg" xmlns:xlink="http://www.w3.org/1999/xlink" id="Layer_1" x="0" y="0" enable-background="new 0 0 1000 1000" version="1.1" viewBox="0 0 1000 1000" xml:space="preserve"><metadata><?xpacket begin="﻿" id="W5M0MpCehiHzreSzNTczkc9d"?><?xpacket end="w"?></metadata><switch><g><g><g><g><circle cx="500" cy="500" r="398" fill="#382B73"/></g><g><circle cx="500" cy="500" r="344.3" fill="#473080"/></g></g><g><path fill="#382B73" d="M700.3,313.6H299.7c-13.8,0-25,11.2-25,25v285.2c0,13.8,11.2,25,25,25h152v15v41.9h-21.6 c-13.8,0-25,11.2-25,25v1.2v9.3v0.2c0,2.8,2.2,5,5,5h179.8c2.8,0,5-2.2,5-5v-0.2v-9.3v-1.2c0-13.8-11.2-25-25-25h-21.6v-41.9 v-15h152c13.8,0,25-11.2,25-25V338.6C725.3,324.8,714.1,313.6,700.3,313.6z"/></g><g><g><g><path fill="#FFC733" d="M700.3,628.8H299.7c-13.8,0-25-11.2-25-25V318.6c0-13.8,11.2-25,25-25h400.6c13.8,0,25,11.2,25,25 v285.2C725.3,617.6,714.1,628.8,700.3,628.8z"/></g><g><path fill="#FEDE3A" d="M698.5,620.2h-397c-11,0-20-9-20-20v-278c0-11,9-20,20-20h397c11,0,20,9,20,20v278 C718.5,611.2,709.5,620.2,698.5,620.2z"/></g><g><path fill="#FFC733" d="M681.8,584.2H318.2c-11,0-20-9-20-20V339.5c0-11,9-20,20-20h363.7c11,0,20,9,20,20v224.7 C701.8,575.2,692.9,584.2,681.8,584.2z"/></g><g><path fill="#EF5A9D" d="M679.3,576.5H320.7c-8.3,0-15-6.7-15-15V341.1c0-8.3,6.7-15,15-15h358.6c8.3,0,15,6.7,15,15v220.4 C694.3,569.8,687.6,576.5,679.3,576.5z"/></g><g><path fill="#A72973" d="M678.6,326.1H321.4c-8.7,0-15.7,7-15.7,15.7v12.1c0-8.7,7-15.7,15.7-15.7h357.2 c8.7,0,15.7,7,15.7,15.7v-12.1C694.3,333.1,687.3,326.1,678.6,326.1z"/></g><g><path fill="#FEDE3A" d="M569.9,685.6H430.1c-13.8,0-25,11.2-25,25v10.8c0,2.8,2.2,5,5,5h179.8c2.8,0,5-2.2,5-5v-10.8 C594.9,696.8,583.7,685.6,569.9,685.6z"/></g><g><path fill="#FFC733" d="M572.9,699.3H427.1c-9.2,0-17.3,4.8-22,12c0,0.2,0,0.4,0,0.6v9.3c0,2.9,2.3,5.2,5.2,5.2h179.3 c2.9,0,5.2-2.3,5.2-5.2v-9.3c0-0.2,0-0.4,0-0.6C590.2,704.1,582.1,699.3,572.9,699.3z"/></g><g><rect width="96.6" height="56.9" x="451.7" y="628.8" fill="#2DBBA5"/></g><g><rect width="96.6" height="15" x="451.7" y="628.8" fill="#00A58C"/></g><g><circle cx="500" cy="601.9" r="10.5" fill="#2DBBA5"/></g><g><path fill="#00A58C" d="M500,608.4c-5.1,0-9.4-3.7-10.3-8.5c-0.1,0.6-0.2,1.3-0.2,2c0,5.8,4.7,10.5,10.5,10.5 s10.5-4.7,10.5-10.5c0-0.7-0.1-1.3-0.2-2C509.4,604.7,505.1,608.4,500,608.4z"/></g></g><g><g><path fill="#A72973" d="M459.6,488c1,1.4,1.5,3.1,1.5,5c0,3.2-1,5.7-3,7.7c-2,2-4.5,3-7.5,3c-1.6,0-3.3-0.3-5.2-1l-56.2-21.8 c-3.3-1.2-5.8-3.2-7.7-5.9c-1.9-2.7-2.8-5.8-2.8-9.4c0-3.4,0.9-6.4,2.8-9.2c1.9-2.8,4.4-4.8,7.7-6.2l56.2-21.8 c1.9-0.7,3.7-1,5.2-1c3,0,5.5,1,7.5,3c2,2,3,4.5,3,7.7c0,1.9-0.5,3.6-1.5,5.1c-1,1.5-2.4,2.5-4.2,3.2l-50.1,19.2l50.1,19.2 C457.2,485.5,458.6,486.6,459.6,488z"/></g><g><path fill="#A72973" d="M487.5,535.5c-2,1.4-4.2,2-6.7,2c-3.2,0-5.9-1-8.3-3c-2.4-2-3.5-4.6-3.5-7.8c0-1.4,0.2-2.6,0.7-3.9 L508,402.5c0.9-2.7,2.3-4.7,4.3-6.1c2-1.3,4.1-2,6.5-2c3.1,0,5.9,1,8.4,3c2.4,2,3.6,4.7,3.6,7.9c0,0.7-0.2,1.9-0.7,3.7 l-38.3,120.3C490.9,532.1,489.5,534.2,487.5,535.5z"/></g><g><path fill="#A72973" d="M618.5,456.3c1.9,2.8,2.8,5.8,2.8,9.2c0,3.6-0.9,6.8-2.8,9.4c-1.9,2.7-4.4,4.7-7.7,5.9l-56.2,21.8 c-1.8,0.7-3.5,1-5.2,1c-3,0-5.5-1-7.5-3c-2-2-3-4.5-3-7.7c0-1.9,0.5-3.6,1.5-5c1-1.4,2.4-2.5,4.2-3.3l50.1-19.2l-50.1-19.2 c-1.8-0.7-3.2-1.7-4.2-3.2c-1-1.5-1.5-3.1-1.5-5.1c0-3.1,1-5.7,3-7.7c2-2,4.5-3,7.5-3c1.6,0,3.3,0.3,5.2,1l56.2,21.8 C614,451.4,616.6,453.5,618.5,456.3z"/></g></g><g><path fill="#FFF" d="M455.4,436.2l-50.1,19.2l50.1,19.2c1.8,0.8,3.2,1.9,4.2,3.3c1,1.4,1.5,3.1,1.5,5c0,3.2-1,5.7-3,7.7 c-2,2-4.5,3-7.5,3c-1.6,0-3.3-0.3-5.2-1l-56.2-21.8c-3.3-1.2-5.8-3.2-7.7-5.9c-1.9-2.7-2.8-5.8-2.8-9.4c0-3.4,0.9-6.4,2.8-9.2 c1.9-2.8,4.4-4.8,7.7-6.2l56.2-21.8c1.9-0.7,3.7-1,5.2-1c3,0,5.5,1,7.5,3c2,2,3,4.5,3,7.7c0,1.9-0.5,3.6-1.5,5.1 C458.6,434.5,457.2,435.5,455.4,436.2z M527.2,387.5c-2.4-2-5.2-3-8.4-3c-2.4,0-4.5,0.7-6.5,2c-2,1.4-3.4,3.4-4.3,6.1 l-38.3,120.3c-0.4,1.2-0.7,2.5-0.7,3.9c0,3.1,1.2,5.7,3.5,7.8c2.4,2,5.1,3,8.3,3c2.5,0,4.7-0.7,6.7-2c2-1.3,3.4-3.4,4.3-6.1 l38.3-120.3c0.4-1.8,0.7-3,0.7-3.7C530.8,392.2,529.6,389.5,527.2,387.5z M618.5,446.3c-1.9-2.8-4.4-4.8-7.7-6.2l-56.2-21.8 c-1.9-0.7-3.7-1-5.2-1c-3,0-5.5,1-7.5,3c-2,2-3,4.5-3,7.7c0,1.9,0.5,3.6,1.5,5.1c1,1.5,2.4,2.5,4.2,3.2l50.1,19.2l-50.1,19.2 c-1.8,0.8-3.2,1.9-4.2,3.3c-1,1.4-1.5,3.1-1.5,5c0,3.2,1,5.7,3,7.7c2,2,4.5,3,7.5,3c1.7,0,3.4-0.3,5.2-1l56.2-21.8 c3.3-1.2,5.8-3.2,7.7-5.9c1.9-2.7,2.8-5.8,2.8-9.4C621.2,452.1,620.3,449,618.5,446.3z"/></g><g><g><path fill="#D1D3D4" d="M458.2,482.1c-2,2-4.5,3-7.5,3c-1.6,0-3.3-0.3-5.2-1l-56.2-21.8c-3.3-1.2-5.8-3.2-7.7-5.9 c-1.1-1.5-1.8-3.2-2.3-5.1c-0.3,1.3-0.5,2.7-0.5,4.1c0,3.6,0.9,6.8,2.8,9.4c1.9,2.7,4.4,4.7,7.7,5.9l56.2,21.8 c1.9,0.7,3.7,1,5.2,1c3,0,5.5-1,7.5-3c2-2,3-4.5,3-7.7c0-1.4-0.3-2.8-0.9-3.9C459.7,480.2,459.1,481.2,458.2,482.1z"/></g><g><path fill="#D1D3D4" d="M544.6,436.2l39,15l11.1-4.3l-50.1-19.2c-1.8-0.7-3.2-1.7-4.2-3.2c-0.3-0.4-0.5-0.7-0.7-1.1 c-0.6,1.4-0.9,2.9-0.9,4.6c0,1.9,0.5,3.6,1.5,5.1C541.4,434.5,542.8,435.5,544.6,436.2z"/></g><g><path fill="#D1D3D4" d="M618.5,456.4c-1.9,2.7-4.4,4.7-7.7,5.9l-56.2,21.8c-1.8,0.7-3.5,1-5.2,1c-3,0-5.5-1-7.5-3 c-0.9-0.9-1.6-1.9-2.1-3.1c-0.6,1.2-0.9,2.5-0.9,3.9c0,3.2,1,5.7,3,7.7c2,2,4.5,3,7.5,3c1.7,0,3.4-0.3,5.2-1l56.2-21.8 c3.3-1.2,5.8-3.2,7.7-5.9c1.9-2.7,2.8-5.8,2.8-9.4c0-1.4-0.2-2.8-0.5-4.1C620.3,453.1,619.5,454.9,618.5,456.4z"/></g><g><path fill="#D1D3D4" d="M459.6,424.5c-1,1.5-2.4,2.5-4.2,3.2L405.2,447l11.1,4.3l39-15c1.8-0.7,3.2-1.7,4.2-3.2 c1-1.5,1.5-3.1,1.5-5.1c0-1.7-0.3-3.2-0.9-4.6C460.1,423.8,459.8,424.1,459.6,424.5z"/></g><g><path fill="#D1D3D4" d="M491.8,511c-0.9,2.7-2.3,4.7-4.3,6.1c-2,1.4-4.2,2-6.7,2c-3.2,0-5.9-1-8.3-3c-1.2-1.1-2.1-2.3-2.7-3.6 l-0.2,0.5c-0.4,1.2-0.7,2.5-0.7,3.9c0,3.1,1.2,5.7,3.5,7.8c2.4,2,5.1,3,8.3,3c2.5,0,4.7-0.7,6.7-2c2-1.3,3.4-3.4,4.3-6.1 l38.3-120.3c0.4-1.8,0.7-3,0.7-3.7c0-1.6-0.3-3-0.8-4.3L491.8,511z"/></g></g><g><path fill="#D1D3D4" d="M594.8,447c6.9,3,6.9,5.8,0,8.5l-11.8-4.5L594.8,447z"/></g><g><path fill="#D1D3D4" d="M405.3,447c-6.9,3-6.9,5.8,0,8.5l11.8-4.5L405.3,447z"/></g></g></g></g></switch></svg>