<svg xmlns="http://www.w3.org/2000/svg" xmlns:xlink="http://www.w3.org/1999/xlink" id="Layer_1" x="0" y="0" enable-background="new 0 0 1000 1000" version="1.1" viewBox="0 0 1000 1000" xml:space="preserve"><metadata><?xpacket begin="﻿" id="W5M0MpCehiHzreSzNTczkc9d"?><?xpacket end="w"?></metadata><switch><g><g><g><g><circle cx="500" cy="500" r="398" fill="#382B73"/></g><g><circle cx="500" cy="500" r="344.3" fill="#473080"/></g></g><g><path fill="#382B73" d="M700.3,313.6H299.7c-13.8,0-25,11.2-25,25v285.2c0,13.8,11.2,25,25,25h152v15v41.9h-21.6 c-13.8,0-25,11.2-25,25v1.2v9.3v0.2c0,2.8,2.2,5,5,5h179.8c2.8,0,5-2.2,5-5v-0.2v-9.3v-1.2c0-13.8-11.2-25-25-25h-21.6v-41.9 v-15h152c13.8,0,25-11.2,25-25V338.6C725.3,324.8,714.1,313.6,700.3,313.6z"/></g><g><g><g><path fill="#E7AD27" d="M700.3,628.8H299.7c-13.8,0-25-11.2-25-25V318.6c0-13.8,11.2-25,25-25h400.6c13.8,0,25,11.2,25,25 v285.2C725.3,617.6,714.1,628.8,700.3,628.8z"/></g><g><path fill="#FEDE3A" d="M698.5,620.2h-397c-11,0-20-9-20-20v-278c0-11,9-20,20-20h397c11,0,20,9,20,20v278 C718.5,611.2,709.5,620.2,698.5,620.2z"/></g><g><path fill="#E7AD27" d="M681.8,584.2H318.2c-11,0-20-9-20-20V339.5c0-11,9-20,20-20h363.7c11,0,20,9,20,20v224.7 C701.8,575.2,692.9,584.2,681.8,584.2z"/></g><g><path fill="#2DBBA5" d="M679.3,576.5H320.7c-8.3,0-15-6.7-15-15V341.1c0-8.3,6.7-15,15-15h358.6c8.3,0,15,6.7,15,15v220.4 C694.3,569.8,687.6,576.5,679.3,576.5z"/></g><g><path fill="#00A58C" d="M678.6,326.1H321.4c-8.7,0-15.7,7-15.7,15.7v12.1c0-8.7,7-15.7,15.7-15.7h357.2 c8.7,0,15.7,7,15.7,15.7v-12.1C694.3,333.1,687.3,326.1,678.6,326.1z"/></g><g><path fill="#FEDE3A" d="M569.9,685.6H430.1c-13.8,0-25,11.2-25,25v10.8c0,2.8,2.2,5,5,5h179.8c2.8,0,5-2.2,5-5v-10.8 C594.9,696.8,583.7,685.6,569.9,685.6z"/></g><g><path fill="#FFC733" d="M572.9,699.3H427.1c-9.2,0-17.3,4.8-22,12c0,0.2,0,0.4,0,0.6v9.3c0,2.9,2.3,5.2,5.2,5.2h179.3 c2.9,0,5.2-2.3,5.2-5.2v-9.3c0-0.2,0-0.4,0-0.6C590.2,704.1,582.1,699.3,572.9,699.3z"/></g><g><rect width="96.6" height="56.9" x="451.7" y="628.8" fill="#EF5A9D"/></g><g><rect width="96.6" height="15" x="451.7" y="628.8" fill="#A72973"/></g><g><circle cx="500" cy="601.9" r="10.5" fill="#EF5A9D"/></g><g><path fill="#A72973" d="M500,608.4c-5.1,0-9.4-3.7-10.3-8.5c-0.1,0.6-0.2,1.3-0.2,2c0,5.8,4.7,10.5,10.5,10.5 s10.5-4.7,10.5-10.5c0-0.7-0.1-1.3-0.2-2C509.4,604.7,505.1,608.4,500,608.4z"/></g></g><g><path fill="#00A58C" d="M661,436H335c-8.3,0-15-6.7-15-15v-45.5c0-8.3,6.7-15,15-15h326c8.3,0,15,6.7,15,15V421 C676,429.3,669.3,436,661,436z"/></g><g><path fill="#00A58C" d="M381,567h-46c-8.3,0-15-6.7-15-15v-80.5c0-8.3,6.7-15,15-15h46c8.3,0,15,6.7,15,15V552 C396,560.3,389.3,567,381,567z"/></g><g><path fill="#00A58C" d="M668.1,472.3H427.6c-4.4,0-7.9-3.5-7.9-7.9l0,0c0-4.4,3.5-7.9,7.9-7.9h240.5c4.4,0,7.9,3.5,7.9,7.9l0,0 C676,468.7,672.5,472.3,668.1,472.3z"/></g><g><path fill="#00A58C" d="M668.1,503.9H427.6c-4.4,0-7.9-3.5-7.9-7.9l0,0c0-4.4,3.5-7.9,7.9-7.9h240.5c4.4,0,7.9,3.5,7.9,7.9l0,0 C676,500.3,672.5,503.9,668.1,503.9z"/></g><g><path fill="#00A58C" d="M668.1,535.4H427.6c-4.4,0-7.9-3.5-7.9-7.9l0,0c0-4.4,3.5-7.9,7.9-7.9h240.5c4.4,0,7.9,3.5,7.9,7.9l0,0 C676,531.9,672.5,535.4,668.1,535.4z"/></g><g><path fill="#00A58C" d="M668.1,567H427.6c-4.4,0-7.9-3.5-7.9-7.9v0c0-4.4,3.5-7.9,7.9-7.9h240.5c4.4,0,7.9,3.5,7.9,7.9v0 C676,563.5,672.5,567,668.1,567z"/></g><g><path fill="#FFF" d="M661,426H335c-8.3,0-15-6.7-15-15v-45.5c0-8.3,6.7-15,15-15h326c8.3,0,15,6.7,15,15V411 C676,419.3,669.3,426,661,426z"/></g><g><path fill="#D1D3D4" d="M661,413.2H335c-8.3,0-15-6.7-15-15V411c0,8.3,6.7,15,15,15h326c8.3,0,15-6.7,15-15v-12.8 C676,406.5,669.3,413.2,661,413.2z"/></g><g><path fill="#FFF" d="M381,557h-46c-8.3,0-15-6.7-15-15v-80.5c0-8.3,6.7-15,15-15h46c8.3,0,15,6.7,15,15V542 C396,550.3,389.3,557,381,557z"/></g><g><path fill="#D1D3D4" d="M381,545.7h-46c-8.3,0-15-6.7-15-15V542c0,8.3,6.7,15,15,15h46c8.3,0,15-6.7,15-15v-11.3 C396,539,389.3,545.7,381,545.7z"/></g><g><path fill="#FFF" d="M668.1,462.3H427.6c-4.4,0-7.9-3.5-7.9-7.9l0,0c0-4.4,3.5-7.9,7.9-7.9h240.5c4.4,0,7.9,3.5,7.9,7.9l0,0 C676,458.7,672.5,462.3,668.1,462.3z"/></g><g><path fill="#D1D3D4" d="M668.1,455.9H427.6c-3.2,0-6-1.9-7.2-4.7c-0.4,1-0.7,2-0.7,3.2c0,4.4,3.5,7.9,7.9,7.9h240.5 c4.4,0,7.9-3.5,7.9-7.9c0-1.1-0.2-2.2-0.7-3.2C674.1,454,671.3,455.9,668.1,455.9z"/></g><g><path fill="#FFF" d="M668.1,493.9H427.6c-4.4,0-7.9-3.5-7.9-7.9l0,0c0-4.4,3.5-7.9,7.9-7.9h240.5c4.4,0,7.9,3.5,7.9,7.9l0,0 C676,490.3,672.5,493.9,668.1,493.9z"/></g><g><path fill="#FFF" d="M668.1,525.4H427.6c-4.4,0-7.9-3.5-7.9-7.9l0,0c0-4.4,3.5-7.9,7.9-7.9h240.5c4.4,0,7.9,3.5,7.9,7.9l0,0 C676,521.9,672.5,525.4,668.1,525.4z"/></g><g><path fill="#FFF" d="M668.1,557H427.6c-4.4,0-7.9-3.5-7.9-7.9v0c0-4.4,3.5-7.9,7.9-7.9h240.5c4.4,0,7.9,3.5,7.9,7.9v0 C676,553.5,672.5,557,668.1,557z"/></g><g><path fill="#D1D3D4" d="M668.1,487.5H427.6c-3.2,0-6-1.9-7.2-4.7c-0.4,1-0.7,2-0.7,3.2c0,4.4,3.5,7.9,7.9,7.9h240.5 c4.4,0,7.9-3.5,7.9-7.9c0-1.1-0.2-2.2-0.7-3.2C674.1,485.6,671.3,487.5,668.1,487.5z"/></g><g><path fill="#D1D3D4" d="M668.1,519.1H427.6c-3.2,0-6-1.9-7.2-4.7c-0.4,1-0.7,2-0.7,3.2c0,4.4,3.5,7.9,7.9,7.9h240.5 c4.4,0,7.9-3.5,7.9-7.9c0-1.1-0.2-2.2-0.7-3.2C674.1,517.1,671.3,519.1,668.1,519.1z"/></g><g><path fill="#D1D3D4" d="M668.1,550.7H427.6c-3.2,0-6-1.9-7.2-4.7c-0.4,1-0.7,2-0.7,3.2c0,4.4,3.5,7.9,7.9,7.9h240.5 c4.4,0,7.9-3.5,7.9-7.9c0-1.1-0.2-2.2-0.7-3.2C674.1,548.7,671.3,550.7,668.1,550.7z"/></g></g></g></g></switch></svg>