<svg width="24" height="24" xmlns="http://www.w3.org/2000/svg" data-name="Layer 1">
 <title/>

 <g>
  <title>Layer 1</title>
  <path id="svg_1" d="m15.29,14.71l1.41,-1.41l-2.27,-2.3a4,4 0 0 0 0.57,-2a4,4 0 1 0 -4,4a4,4 0 0 0 2,-0.57l2.29,2.28zm-6.29,-5.71a2,2 0 1 1 2,2a2,2 0 0 1 -2,-2z" fill="#2B9941"/>
  <path id="svg_2" d="m9.1597,19.90316l-1.25,0l0,1.24684l8.05,-0.05l-0.05,-1.19684l-1,0l0.05,-2.79231l5.75,-0.09973l-0.05,-13.96154l-17.7,-0.14959l-0.05,14.31058l6.35,0c0,0.66484 -0.1,2.02775 -0.1,2.69258zm3.75,0l-2,0l0,-1.99451l2,0l0,1.99451zm-9,-3.98901l0,-11.96703l16,0l0,11.96703l-16,0z" fill="#2B9941"/>
 </g>
</svg>