<svg xmlns="http://www.w3.org/2000/svg" xmlns:xlink="http://www.w3.org/1999/xlink" id="Layer_1" x="0" y="0" enable-background="new 0 0 1000 1000" version="1.1" viewBox="0 0 1000 1000" xml:space="preserve"><metadata><?xpacket begin="﻿" id="W5M0MpCehiHzreSzNTczkc9d"?><?xpacket end="w"?></metadata><switch><g><g><g><g><circle cx="500" cy="500" r="398" fill="#382B73"/></g><g><circle cx="500" cy="500" r="344.3" fill="#473080"/></g></g><g><path fill="#382B73" d="M739.4,660.8c0-4.3-1.7-8.6-4.9-11.8l-30.1-30.1l-24-24c-1.6-1.6-3.4-3-5.2-4.3 c-5.3-3.6-11.5-5.7-18-6.1c-0.7,0-1.4-0.1-2.2-0.1c-0.6,0-1.3,0-1.9,0.1l-0.1,0c-1.1,0.1-2.1,0.1-3.2,0 c-7.7-0.3-15.1-3.6-20.7-9.1l-2.2-2.2l0,0l-86.6-86.6L674,352.9l27.3-8.9l22.2-40.6l-3.8-3.8l-9.3-9.3l-3.8-3.8L666,308.7 l-8.9,27.3L523.4,469.7l-86.6-86.6l0,0l-2.2-2.2c-5.5-5.5-8.8-12.9-9.1-20.7c0-1.1,0-2.1,0-3.2l0-0.1c0-0.6,0.1-1.3,0.1-1.9 c0-0.7,0-1.4-0.1-2.2c-0.4-6.4-2.5-12.7-6.1-18c-1.3-1.9-2.7-3.6-4.3-5.2l-27-27l-27-27c-2.5-2.5-5.5-4-8.7-4.6 c-1.1-0.2-2.1-0.3-3.2-0.3c-1.1,0-2.2,0.1-3.2,0.3c-1.1,0.2-2.1,0.5-3.1,0.9c-2,0.8-3.9,2.1-5.6,3.7c0,0,0,0,0,0 c-0.4,0.4-0.7,0.7-1,1.1c-0.2,0.2-0.3,0.4-0.5,0.7c-0.1,0.2-0.3,0.3-0.4,0.5c-0.2,0.3-0.4,0.6-0.6,0.9c0,0.1-0.1,0.2-0.1,0.2 c-0.2,0.4-0.4,0.7-0.6,1.1v0l0,0c-3,6.3-1.9,14,3.2,19.2l28.9,28.9c10.3,10.3,10.3,27,0,37.2c-10.3,10.3-27,10.3-37.2,0 L300,336.6c-5.5-5.5-13.9-6.4-20.3-2.7c-0.1,0-0.2,0.1-0.2,0.1c-0.3,0.2-0.6,0.4-0.9,0.6c-0.2,0.1-0.3,0.2-0.5,0.4 c-0.2,0.2-0.4,0.3-0.7,0.5c-0.4,0.3-0.8,0.7-1.1,1c0,0,0,0,0,0v0c-2.1,2.1-3.5,4.5-4.2,7.1c-0.2,0.5-0.3,1-0.4,1.6 c-0.2,1.1-0.3,2.1-0.3,3.2c0,0.5,0,1.1,0.1,1.6c0.4,3.8,2,7.4,4.9,10.3l30.1,30.1l24,24c1.6,1.6,3.4,3,5.2,4.3 c5.3,3.6,11.5,5.7,18,6.1c0.7,0,1.4,0.1,2.2,0.1c0.6,0,1.3,0,1.9-0.1l0.1,0c3.7-0.2,7.4,0.2,10.9,1.3c4.8,1.5,9.3,4.1,13,7.8 l2.2,2.2l0,0l86.6,86.6l-36,36l-7.2-7.2l-15.9-15.9c-5.9-5.9-15.4-5.9-21.2,0l-10.6,10.6c-5.9,5.9-5.9,15.4,0,21.2l4.3,4.3 l-17.1,17.1c-5.6,5.6-13.6,8.3-22.6,7.7h0c-9-0.6-17.1,2.2-22.6,7.7l-57.3,57.3c-5.9,5.9-4.3,16.9,3.5,24.7l56,56 c7.8,7.8,18.8,9.3,24.7,3.5l57.3-57.3c5.6-5.6,8.3-13.6,7.7-22.6v0c-0.6-9,2.2-17.1,7.7-22.6l17.1-17.1l4.3,4.3 c5.9,5.9,15.4,5.9,21.2,0l10.6-10.6c5.9-5.9,5.9-15.4,0-21.2l-15.9-15.9l-7.2-7.2l36-36l86.6,86.6l0,0l2.2,2.2 c4.4,4.4,7.3,10,8.5,16c0.5,2.6,0.7,5.2,0.6,7.9l0,0.1c0,0.6-0.1,1.3-0.1,1.9c0,0.7,0,1.4,0.1,2c0.3,6.5,2.5,12.7,6.1,18.1 c1.3,1.9,2.7,3.6,4.3,5.2l24,24l30.1,30.1c3.3,3.3,7.5,4.9,11.8,4.9c0,0,0.1,0,0.1,0c0.5,0,1.1,0,1.6-0.1 c0.5-0.1,1.1-0.1,1.6-0.2c3.2-0.6,6.2-2.2,8.7-4.6h0c0,0,0,0,0,0c0.4-0.4,0.7-0.7,1-1.1c0.2-0.2,0.3-0.4,0.5-0.7 c0.1-0.2,0.3-0.3,0.4-0.5c0.2-0.3,0.4-0.6,0.6-0.9c0-0.1,0.1-0.2,0.1-0.2c0.2-0.4,0.4-0.7,0.6-1.1l0,0h0c3-6.3,1.9-14-3.2-19.2 l-28.9-28.9c-10.3-10.3-10.3-27,0-37.2c10.3-10.3,27-10.3,37.2,0l28.9,28.9c5.5,5.5,13.9,6.4,20.3,2.7c0.1,0,0.1-0.1,0.2-0.1 c0.3-0.2,0.6-0.4,0.9-0.6c0.2-0.1,0.3-0.2,0.5-0.4c0.2-0.2,0.4-0.3,0.7-0.5c0.4-0.3,0.8-0.7,1.1-1c0,0,0,0,0,0 C737.8,669.5,739.4,665.2,739.4,660.8C739.4,660.9,739.4,660.8,739.4,660.8z"/></g><g><g><g><path fill="#177BC0" d="M421.1,623.4l20.2-20.2l-54.5-54.5l-20.2,20.2c-5.6,5.6-13.6,8.3-22.6,7.7h0c-9-0.6-17.1,2.2-22.6,7.7 l-57.3,57.3c-5.9,5.9-4.3,16.9,3.5,24.7l56,56c7.8,7.8,18.8,9.3,24.7,3.5l57.3-57.3c5.6-5.6,8.3-13.6,7.7-22.6l0,0 C412.8,637,415.5,628.9,421.1,623.4z"/></g><g><path fill="#1CAEE4" d="M410.3,612.6l20.2-20.2l-33-33l-20.2,20.2c-5.6,5.6-12.5,9.4-19.7,10.7l0,0 c-7.1,1.3-14.1,5.1-19.7,10.7l-57.3,57.3c-5.9,5.9-6.8,14.4-2.1,19.1l33.9,33.9c4.7,4.7,13.3,3.8,19.1-2.1L389,652 c5.6-5.6,9.4-12.5,10.7-19.7v0C401,625.2,404.8,618.2,410.3,612.6z"/></g><g><rect width="24" height="384" x="558.1" y="227.9" fill="#D1D3D4" transform="matrix(0.7071 0.7071 -0.7071 0.7071 463.8976 -280.1291)"/></g><g><rect width="12.4" height="384" x="563.9" y="227.9" fill="#FFF" transform="matrix(0.7071 0.7071 -0.7071 0.7071 463.8954 -280.1287)"/></g><g><polygon fill="#D1D3D4" points="674 332.9 657.1 316 666 288.7 706.6 266.5 723.5 283.4 701.3 324"/></g><g><polygon fill="#FFF" points="670.2 329.1 660.9 319.8 674 296.7 710.4 270.3 719.7 279.6 693.3 316"/></g><g><path fill="#A72973" d="M411.3,515.7l63,63c5.9,5.9,5.9,15.4,0,21.2l-10.6,10.6c-5.9,5.9-15.4,5.9-21.2,0l-63-63 c-5.9-5.9-5.9-15.4,0-21.2l10.6-10.6C396,509.8,405.5,509.8,411.3,515.7z"/></g><g><path fill="#EF5A9D" d="M427.2,531.5l31.3,31.3c5.9,5.9,5.9,15.4,0,21.2l-10.6,10.6c-5.9,5.9-15.4,5.9-21.2,0l-31.3-31.3 c-5.9-5.9-5.9-15.4,0-21.2l10.6-10.6C411.8,525.7,421.3,525.7,427.2,531.5z"/></g></g><rect width="75" height="24" x="462.8" y="477.7" fill="#D1D3D4" transform="matrix(0.7071 -0.7071 0.7071 0.7071 -199.7012 497.2096)"/><g><path fill="#FEDE3A" d="M681.8,623.9l28.9,28.9c6.6,6.6,17.2,6.6,23.8,0l0,0c6.6-6.6,6.6-17.2,0-23.8l-54.1-54.1 c-7.2-7.2-17.1-11-27.3-10.4l-0.1,0c-8.9,0.5-17.6-2.8-23.9-9.1l-2.2-2.2L436.8,363.1l-2.2-2.2c-6.3-6.3-9.6-15-9.1-23.9l0-0.1 c0.6-10.2-3.2-20.1-10.4-27.3L361,255.5c-6.6-6.6-17.2-6.6-23.8,0l0,0c-6.6,6.6-6.6,17.2,0,23.8l28.9,28.9 c10.3,10.3,10.3,27,0,37.2c-10.3,10.3-27,10.3-37.2,0L300,316.6c-6.6-6.6-17.2-6.6-23.8,0l0,0c-6.6,6.6-6.6,17.2,0,23.8 l54.1,54.1c7.2,7.2,17.1,11,27.3,10.4l0.1,0c8.9-0.5,17.6,2.8,23.9,9.1l2.2,2.2l190.1,190.1l2.2,2.2c6.3,6.3,9.6,15,9.1,23.9 l0,0.1c-0.6,10.2,3.2,20.1,10.4,27.3l54.1,54.1c6.6,6.6,17.2,6.6,23.8,0l0,0c6.6-6.6,6.6-17.2,0-23.8l-28.9-28.9 c-10.3-10.3-10.3-27,0-37.2C654.9,613.6,671.5,613.6,681.8,623.9z"/></g><g><g><ellipse cx="366.1" cy="345.4" fill="#E7AD27" rx="0" ry="0" transform="matrix(0.7287 -0.6848 0.6848 0.7287 -137.2412 344.4141)"/></g><g><path fill="#E7AD27" d="M659.3,704.2l-54.1-54.1c-7.2-7.2-11.7-16.4-12.3-25.3l0-0.1c-0.6-7.8-4.5-15.9-10.8-22.2l-2.2-2.2 L389.8,410.1l-2.2-2.2c-6.3-6.3-14.4-10.2-22.2-10.8l-0.1,0c-8.9-0.6-18.1-5.1-25.3-12.3l-54.1-54.1c-5.2-5.2-7-12.2-5.1-17.4 c-1.7,0.8-3.2,1.9-4.6,3.2l0,0c-6.6,6.6-6.6,17.2,0,23.8l54.1,54.1c7.2,7.2,17.1,11,27.3,10.4l0.1,0 c8.9-0.5,17.6,2.8,23.9,9.1l2.2,2.2l190.1,190.1l2.2,2.2c6.3,6.3,9.6,15,9.1,23.9l0,0.1c-0.6,10.2,3.2,20.1,10.4,27.3 l54.1,54.1c6.6,6.6,17.2,6.6,23.8,0l0,0c1.4-1.4,2.4-2.9,3.2-4.6C671.5,711.2,664.5,709.4,659.3,704.2z"/></g><g><path fill="#E7AD27" d="M734.5,629l-54.1-54.1c-7.2-7.2-17.1-11-27.3-10.4l-0.1,0c-8.9,0.5-17.6-2.8-23.9-9.1l-2.2-2.2 L436.8,363.1l-2.2-2.2c-6.3-6.3-9.6-15-9.1-23.9l0-0.1c0.6-10.2-3.2-20.1-10.4-27.3L361,255.5c-6.6-6.6-17.2-6.6-23.8,0 c-1.4,1.4-2.4,2.9-3.2,4.6c5.2-2,12.2-0.1,17.4,5.1l54.1,54.1c7.2,7.2,11.7,16.4,12.3,25.3l0,0.1c0.6,7.8,4.5,15.9,10.8,22.2 l2.2,2.2l190.1,190.1l2.2,2.2c6.3,6.3,14.4,10.2,22.2,10.8l0.1,0c8.9,0.6,18.1,5.1,25.3,12.3l54.1,54.1 c5.2,5.2,7,12.2,5.1,17.4c1.7-0.8,3.2-1.9,4.6-3.2C741.1,646.2,741.1,635.5,734.5,629z"/></g></g><g><path fill="#FFC733" d="M592.3,585.3L404.7,397.7c-3.8-3.8-3.8-9.9,0-13.7l0,0c3.8-3.8,9.9-3.8,13.7,0L606,571.7 c3.8,3.8,3.8,9.9,0,13.7l0,0C602.2,589.1,596.1,589.1,592.3,585.3z"/></g><g><path fill="#177BC0" d="M304,672.3l84.5-84.5c3.8-3.8,9.9-3.8,13.7,0h0c3.8,3.8,3.8,9.9,0,13.7L317.7,686 c-3.8,3.8-9.9,3.8-13.7,0v0C300.2,682.2,300.2,676.1,304,672.3z"/></g></g></g></g></switch></svg>