<svg xmlns="http://www.w3.org/2000/svg" xmlns:xlink="http://www.w3.org/1999/xlink" id="Layer_1" x="0" y="0" enable-background="new 0 0 1000 1000" version="1.1" viewBox="0 0 1000 1000" xml:space="preserve"><metadata><?xpacket begin="﻿" id="W5M0MpCehiHzreSzNTczkc9d"?><?xpacket end="w"?></metadata><switch><g><g><g><g><circle cx="500" cy="500" r="398" fill="#382B73"/></g><g><circle cx="500" cy="500" r="344.3" fill="#473080"/></g></g><g><g><path fill="#382B73" d="M682.1,268.1H503c-5,0-9,4-9,9v202.4l41.3-45.2c1.7-1.9,4.1-2.9,6.6-2.9h140.2c5,0,9-4,9-9V277.1 C691.1,272.1,687.1,268.1,682.1,268.1z"/></g><g><path fill="#382B73" d="M519.9,509.2c0-0.2-0.1-0.4-0.1-0.6c0-0.1-0.1-0.3-0.1-0.4c0-0.2-0.1-0.4-0.1-0.5 c0-0.1-0.1-0.3-0.2-0.4c-0.1-0.2-0.1-0.3-0.2-0.5c-0.1-0.2-0.1-0.3-0.2-0.5c-0.1-0.1-0.1-0.3-0.2-0.4c-0.1-0.2-0.2-0.3-0.3-0.5 c-0.1-0.1-0.1-0.2-0.2-0.3c-0.1-0.2-0.2-0.3-0.3-0.5c-0.1-0.1-0.1-0.2-0.2-0.3c-0.1-0.2-0.3-0.3-0.4-0.5 c-0.1-0.1-0.1-0.2-0.2-0.2c-0.1-0.2-0.3-0.3-0.5-0.5c-0.1-0.1-0.1-0.1-0.2-0.2c-0.2-0.2-0.3-0.3-0.5-0.4 c-0.1,0-0.1-0.1-0.2-0.1c-0.2-0.1-0.4-0.3-0.6-0.4c-0.1,0-0.1-0.1-0.2-0.1c-0.2-0.1-0.4-0.3-0.7-0.4c0,0-0.1,0-0.1-0.1 c-0.2-0.1-0.5-0.2-0.7-0.3c0,0-0.1,0-0.1,0c-0.3-0.1-0.5-0.2-0.8-0.3c0,0,0,0-0.1,0c-0.3-0.1-0.6-0.1-0.9-0.2c0,0,0,0,0,0 c-0.3-0.1-0.6-0.1-0.9-0.1c0,0,0,0,0,0l0,0c-0.3,0-0.5,0-0.8,0c-5.5,0-10,4.5-10,10v8.9h-27.4v-4.2v-18.2l0,0v-8.8l0,0v-8.8 v-24.2l0,0v-8.8l0,0v-8.8v-24.2l0,0v-8.8l0,0v-8V396h0c-0.4-31.8-26.3-57.4-58.2-57.4h0l0,0c-31.9,0-57.8,25.6-58.2,57.4h0v0.8 v8l0,0v8.8l0,0v24.2v8.8l0,0v8.8l0,0v24.2v8.8l0,0v8.8l0,0v18.2v4.2h-27.4v-8.9c0-5.5-4.5-10-10-10c-0.3,0-0.5,0-0.8,0l0,0h0 c-0.3,0-0.6,0.1-0.9,0.1c0,0,0,0,0,0c-0.3,0.1-0.6,0.1-0.9,0.2c0,0,0,0-0.1,0c-0.3,0.1-0.5,0.2-0.8,0.3c0,0-0.1,0-0.1,0 c-0.3,0.1-0.5,0.2-0.7,0.3c0,0-0.1,0-0.1,0.1c-0.2,0.1-0.5,0.2-0.7,0.4c-0.1,0-0.1,0.1-0.2,0.1c-0.2,0.1-0.4,0.3-0.6,0.4 c-0.1,0-0.1,0.1-0.2,0.1c-0.2,0.1-0.4,0.3-0.5,0.4c-0.1,0.1-0.1,0.1-0.2,0.2c-0.2,0.1-0.3,0.3-0.5,0.5 c-0.1,0.1-0.1,0.2-0.2,0.2c-0.1,0.2-0.3,0.3-0.4,0.5c-0.1,0.1-0.1,0.2-0.2,0.3c-0.1,0.2-0.2,0.3-0.3,0.5 c-0.1,0.1-0.1,0.2-0.2,0.3c-0.1,0.2-0.2,0.3-0.3,0.5c-0.1,0.1-0.1,0.3-0.2,0.4c-0.1,0.2-0.1,0.3-0.2,0.5 c-0.1,0.2-0.1,0.3-0.2,0.5c-0.1,0.1-0.1,0.3-0.2,0.4c-0.1,0.2-0.1,0.4-0.1,0.5c0,0.1-0.1,0.3-0.1,0.4c0,0.2-0.1,0.4-0.1,0.6 c0,0.1,0,0.2,0,0.3c0,0.3-0.1,0.7-0.1,1v72.3c0,13.7,2.6,26.8,7.2,38.8c0.6,1.6,1.3,3.2,2,4.8c1.7,3.9,3.7,7.7,5.9,11.4 c1.7,2.9,3.6,5.8,5.6,8.5c1,1.4,2,2.7,3.1,4c1.1,1.3,2.2,2.6,3.3,3.9c0.6,0.6,1.1,1.3,1.7,1.9c1.2,1.2,2.3,2.4,3.6,3.6 c2.4,2.4,5,4.6,7.6,6.7c12.5,10.1,27.4,17.4,43.7,20.8c1.6,0.3,3.2,0.6,4.8,0.9v51.2h-62.3c-6.3,0-11.8,3.7-14.5,9 c0,0.1-0.1,0.2-0.1,0.2c-0.2,0.4-0.4,0.9-0.6,1.4c-0.1,0.2-0.1,0.3-0.2,0.5c-0.1,0.2-0.1,0.4-0.2,0.7c-0.1,0.3-0.2,0.6-0.2,0.9 c0,0.2-0.1,0.3-0.1,0.5c-0.1,0.4-0.1,0.8-0.2,1.2c0,0.1,0,0.3,0,0.4c0,0.5-0.1,1-0.1,1.5c0,4.5,1.8,8.5,4.8,11.5 c0.4,0.4,0.8,0.7,1.2,1c0.8,0.7,1.7,1.2,2.6,1.7c2.3,1.2,4.9,2,7.7,2l0,0h158.7l0,0c9,0,16.2-7.3,16.2-16.2c0-0.5,0-1-0.1-1.5 c0-0.1,0-0.3,0-0.4c0-0.4-0.1-0.8-0.2-1.2c0-0.2-0.1-0.4-0.1-0.5c-0.1-0.3-0.1-0.6-0.2-0.9c-0.1-0.2-0.1-0.5-0.2-0.7 c-0.1-0.2-0.1-0.3-0.2-0.5c-0.2-0.5-0.4-0.9-0.6-1.4c0-0.1-0.1-0.2-0.1-0.2c-2.7-5.3-8.2-9-14.5-9h-62.3v-51.2 c0.4-0.1,0.7-0.1,1.1-0.2c1.7-0.3,3.5-0.6,5.2-1c0.9-0.2,1.7-0.4,2.6-0.6c4.2-1.1,8.4-2.4,12.4-4c1.6-0.6,3.2-1.3,4.8-2 c3.9-1.8,7.7-3.7,11.4-5.9c0.7-0.4,1.5-0.9,2.2-1.3c2.2-1.4,4.3-2.8,6.3-4.3c0.7-0.5,1.4-1,2-1.5c2.7-2.1,5.2-4.3,7.7-6.6 c1.8-1.8,3.6-3.6,5.3-5.4c1.1-1.3,2.3-2.5,3.3-3.8c1.1-1.3,2.1-2.6,3.2-4c1.5-2,3-4.1,4.4-6.3c10.6-16.5,16.8-36,16.8-57v-73.5 c0-0.3,0-0.7-0.1-1C520,509.5,519.9,509.4,519.9,509.2z M328.9,539.5h27.4v44.4c0,11.1,3.1,21.4,8.4,30.2 c5.8,9.6,14.4,17.4,24.6,22.3c1.7,0.8,3.4,1.6,5.2,2.2c0.9,0.3,1.8,0.6,2.7,0.9c1.8,0.6,3.7,1,5.6,1.4c0.9,0.2,1.9,0.4,2.9,0.5 c2.9,0.4,5.9,0.7,8.9,0.7l0,0l0,0h0l0,0c32.2,0,58.2-26.1,58.2-58.2v-44.4H500v44.6c0,47.5-38.9,86-86.4,85.6 c-47.1-0.5-84.7-39.6-84.7-86.7V539.5z"/></g></g><g><g><g><path fill="#FFF" d="M494,257.1v202.4l41.3-45.2c1.7-1.9,4.1-2.9,6.7-2.9h140.2c5,0,9-4,9-9V257.1c0-5-4-9-9-9H503 C498,248.1,494,252.1,494,257.1z"/></g><g><path fill="#FEDE3A" d="M658.6,389.2H527.1c-5,0-9-4-9-9V277.6c0-5,4-9,9-9h131.4c5,0,9,4,9,9v102.6 C667.6,385.2,663.6,389.2,658.6,389.2z"/></g><g><path fill="#FFC733" d="M658.6,268.6h-5.1c0.3,3,0.4,6.1,0.4,9.2c0,53.4-43.3,96.7-96.7,96.7c-13.9,0-27.2-2.9-39.1-8.2v14 c0,5,4,9,9,9h131.4c5,0,9-4,9-9V277.6C667.6,272.6,663.6,268.6,658.6,268.6z"/></g><g><g><g><circle cx="552.2" cy="329.5" r="10.9" fill="#1CAEE4"/></g></g><g><g><circle cx="592.6" cy="329.5" r="10.9" fill="#1CAEE4"/></g></g><g><g><circle cx="633" cy="329.5" r="10.9" fill="#1CAEE4"/></g></g></g><g><g><path fill="#177BC0" d="M552.2,335.3c-5.1,0-9.4-3.6-10.6-8.4c-0.2,0.8-0.3,1.6-0.3,2.5c0,6,4.9,10.9,10.9,10.9 c6,0,10.9-4.9,10.9-10.9c0-0.9-0.1-1.7-0.3-2.5C561.6,331.8,557.3,335.3,552.2,335.3z"/></g></g><g><g><path fill="#177BC0" d="M592.6,335.3c-5.1,0-9.4-3.6-10.6-8.4c-0.2,0.8-0.3,1.6-0.3,2.5c0,6,4.9,10.9,10.9,10.9 c6,0,10.9-4.9,10.9-10.9c0-0.9-0.1-1.7-0.3-2.5C602,331.8,597.7,335.3,592.6,335.3z"/></g></g><g><g><path fill="#177BC0" d="M633,335.3c-5.1,0-9.4-3.6-10.6-8.4c-0.2,0.8-0.3,1.6-0.3,2.5c0,6,4.9,10.9,10.9,10.9 c6,0,10.9-4.9,10.9-10.9c0-0.9-0.1-1.7-0.3-2.5C642.4,331.8,638.1,335.3,633,335.3z"/></g></g></g><g><g><rect width="191.2" height="20" x="318.9" y="499.5" fill="#FEDE3A"/></g></g><g><g><rect width="191.2" height="9.8" x="318.9" y="509.7" fill="#E7AD27"/></g></g><g><path fill="#FEDE3A" d="M493.8,719.5H335.1c-9,0-16.2,7.3-16.2,16.2l0,0c0,9,7.3,16.2,16.2,16.2h158.7c9,0,16.2-7.3,16.2-16.2 l0,0C510,726.7,502.8,719.5,493.8,719.5z"/></g><g><path fill="#E7AD27" d="M493.8,735.7H335.1c-6,0-11.2-3.3-14-8.1c-1.4,2.4-2.2,5.2-2.2,8.1c0,9,7.3,16.2,16.2,16.2h158.7 c9,0,16.2-7.3,16.2-16.2c0-3-0.8-5.7-2.2-8.1C505,732.4,499.8,735.7,493.8,735.7z"/></g><g><rect width="34.2" height="68.5" x="397.4" y="650.9" fill="#EF5A9D"/></g><g><path fill="#D1D3D4" d="M414.4,622.2L414.4,622.2c-32.2,0-58.2-26.1-58.2-58.2V376.8c0-32.2,26.1-58.2,58.2-58.2h0 c32.2,0,58.2,26.1,58.2,58.2v187.1C472.7,596.1,446.6,622.2,414.4,622.2z"/></g><g><path fill="#FFF" d="M414.4,622.2L414.4,622.2c-21.8,0-39.4-17.7-39.4-39.4V358c0-21.8,17.7-39.4,39.4-39.4h0 c21.8,0,39.4,17.7,39.4,39.4v224.7C453.9,604.5,436.2,622.2,414.4,622.2z"/></g><g><path fill="#A72973" d="M397.4,665.6v20.4c5.4,0.9,10.9,1.4,16.5,1.4c6,0,11.9-0.4,17.7-1.4v-20.3c-5.8,1.2-11.8,1.8-17.9,1.7 C408,667.3,402.6,666.7,397.4,665.6z"/></g><g><g><path fill="#1CAEE4" d="M385,393.6h-28.8V376H385c4.8,0,8.8,3.9,8.8,8.8l0,0C393.8,389.6,389.9,393.6,385,393.6z"/></g><g><path fill="#177BC0" d="M385,384.8h-28.8v8.8H385c4.8,0,8.8-3.9,8.8-8.8v0c0-1.6-0.4-3.1-1.2-4.4 C391.1,383,388.3,384.8,385,384.8z"/></g><g><path fill="#1CAEE4" d="M385,435.4h-28.8v-17.5H385c4.8,0,8.8,3.9,8.8,8.8v0C393.8,431.4,389.9,435.4,385,435.4z"/></g><g><path fill="#1CAEE4" d="M385,477.1h-28.8v-17.5H385c4.8,0,8.8,3.9,8.8,8.8l0,0C393.8,473.2,389.9,477.1,385,477.1z"/></g><g><path fill="#1CAEE4" d="M472.7,393.6h-28.8c-4.8,0-8.8-3.9-8.8-8.8l0,0c0-4.8,3.9-8.8,8.8-8.8h28.8V393.6z"/></g><g><path fill="#1CAEE4" d="M472.7,435.4h-28.8c-4.8,0-8.8-3.9-8.8-8.8v0c0-4.8,3.9-8.8,8.8-8.8h28.8V435.4z"/></g><g><path fill="#1CAEE4" d="M472.7,477.1h-28.8c-4.8,0-8.8-3.9-8.8-8.8l0,0c0-4.8,3.9-8.8,8.8-8.8h28.8V477.1z"/></g><g><path fill="#177BC0" d="M385,426.6h-28.8v8.8H385c4.8,0,8.8-3.9,8.8-8.8v0c0-1.6-0.4-3.1-1.2-4.4 C391.1,424.8,388.3,426.6,385,426.6z"/></g><g><path fill="#177BC0" d="M385,468.4h-28.8v8.8H385c4.8,0,8.8-3.9,8.8-8.8c0-1.6-0.4-3.1-1.2-4.4 C391.1,466.6,388.3,468.4,385,468.4z"/></g><g><path fill="#177BC0" d="M436.3,380.4c-0.7,1.3-1.2,2.8-1.2,4.4v0c0,4.8,3.9,8.8,8.8,8.8h28.8v-8.8h-28.8 C440.6,384.8,437.8,383,436.3,380.4z"/></g><g><path fill="#177BC0" d="M436.3,422.2c-0.7,1.3-1.2,2.8-1.2,4.4v0c0,4.8,3.9,8.8,8.8,8.8h28.8v-8.8h-28.8 C440.6,426.6,437.8,424.8,436.3,422.2z"/></g><g><path fill="#177BC0" d="M436.3,464c-0.7,1.3-1.2,2.8-1.2,4.4c0,4.8,3.9,8.8,8.8,8.8h28.8v-8.8h-28.8 C440.6,468.4,437.8,466.6,436.3,464z"/></g></g><g><path fill="#A72973" d="M356.2,509.5v54.4c0,32.2,26.1,58.2,58.2,58.2h0c32.2,0,58.2-26.1,58.2-58.2v-54.4H356.2z"/></g><g><path fill="#EF5A9D" d="M375,509.5v54.4c0,32.2,17.7,58.2,39.4,58.2h0c21.8,0,39.4-26.1,39.4-58.2v-54.4H375z"/></g><g><rect width="116.5" height="28.7" x="356.2" y="495.3" fill="#177BC0"/></g><g><rect width="62.1" height="28.7" x="383.4" y="495.3" fill="#1CAEE4"/></g><g><g><path fill="#1CAEE4" d="M413.8,669.7c-58.3-0.3-105-48.5-105-106.7v-72.3c0-5.5,4.5-10,10-10l0,0c5.5,0,10,4.5,10,10V563 c0,47.1,37.6,86.2,84.7,86.7c47.6,0.5,86.4-38.1,86.4-85.6v-73.5c0-5.5,4.5-10,10-10l0,0c5.5,0,10,4.5,10,10v73.5 C520,622.5,472.3,670,413.8,669.7z"/></g></g><g><path fill="#177BC0" d="M510.8,480.6v82.7c0,53.4-43.7,96.9-97.3,96.3c-53-0.5-95.4-44.5-95.4-97.6v-81.5 c-5.2,0.4-9.2,4.7-9.2,10v72.3c0,58.3,46.7,106.4,105,106.7C472.3,670,520,622.5,520,564.1v-73.5 C520,485.3,516,481,510.8,480.6z"/></g></g></g></g></switch></svg>